<svg xmlns="http://www.w3.org/2000/svg" width="135.242" height="101.445" viewBox="0 0 135.242 101.445">
    <g id="prefix__Group_54" data-name="Group 54" transform="translate(-992.022 -496.278)">
        <g id="prefix__Group_53" data-name="Group 53" transform="translate(992.022 496.278)">
            <g id="prefix__Group_49" data-name="Group 49" transform="translate(4.721)">
                <path id="prefix__Path_125" fill="#284766" d="M1120.931 569.579h-6.9c-46.568-11.75-50.005-73.3-50.005-73.3a138.317 138.317 0 0 0 1.4 15.714 64.778 64.778 0 0 1-5.441 23.868 54.766 54.766 0 0 1-5.418-12.578l-.065.016a83.742 83.742 0 0 0-.2-8.421 52.554 52.554 0 0 1-.446 8.577h-.007v.022c-1.687 13.544-9.132 39.027-40.931 46.1h-7.239v.741h115.243zm-63.111-21.664c.8.668 1.659 1.365 2.583 2.081q-.811.676-1.671 1.359c-.385.305-.784.613-1.191.925q-1.355-.787-2.548-1.509 1.46-1.388 2.827-2.856zm-3.227 2.612c-.826-.5-1.585-.976-2.272-1.411q1.442-1.74 2.744-3.607c.722.659 1.529 1.37 2.414 2.119-.886.95-1.848 1.92-2.885 2.899zm14.321-1.424q-.794.565-1.665 1.166c-1.116-.985-2.169-1.964-3.153-2.927q.929-.86 1.766-1.682 1.469 1.777 3.053 3.44zm3.743 3.638q-.7.383-1.463.785c-1.294-1-2.494-1.992-3.6-2.957q.849-.586 1.631-1.143 1.66 1.721 3.433 3.315zm9.618 7.162q1.772 1.083 3.623 2.062c-.265.059-.538.117-.817.171-1.509-.727-2.957-1.488-4.342-2.269q.536-.143 1.026-.286c.172.107.341.219.511.319zm-37.161 1.37c-.248-.056-.489-.114-.725-.174q1.574-.8 3.119-1.674a21.171 21.171 0 0 0 2.111.843q-1.449.663-2.978 1.313c-.541-.096-1.05-.199-1.526-.309zm.781.62a102.3 102.3 0 0 1-20.248 6.107 84.464 84.464 0 0 0 15.2-5.2q1.483-.672 2.938-1.4.58.157 1.206.3c.293.067.593.13.909.192zm9.548-3.987a35.719 35.719 0 0 1 4.59.892c-.991.416-2.031.838-3.112 1.263a16.871 16.871 0 0 1-3.272-1.232q.899-.453 1.795-.924zm-2.284.669a15.759 15.759 0 0 1-1.544-.947c.975.018 1.991.079 3.035.187-.487.252-.982.506-1.49.759zm10.972 1.573a14.539 14.539 0 0 1-6.454.091q1.591-.633 3.046-1.251a35.962 35.962 0 0 1 3.409 1.159zm.623-.229c-1.146-.472-2.279-.869-3.391-1.205.165-.07.332-.142.493-.213q1.767-.767 3.387-1.525 1.3.664 2.681 1.331c.321.155.64.307.959.459-1.3.32-2.651.713-4.04 1.187zm-3.088-1.82c-.292.127-.59.256-.893.385q-1.923-.753-3.664-1.471 1.088-.6 2.169-1.215.906-.517 1.77-1.034c1.173.639 2.407 1.3 3.695 1.956q-1.477.68-3.075 1.38zm-2.74-.029c-.956-.216-1.9-.389-2.813-.522.222-.118.443-.235.663-.355q1.041.432 2.152.877zm-2.692 2.257q-.792.306-1.617.613a24.879 24.879 0 0 1-3.755-.75q1.148-.544 2.3-1.115a17.54 17.54 0 0 0 3.074 1.252zm.719.2a15.428 15.428 0 0 0 3.775.477c.2 0 .391-.005.59-.012a30.57 30.57 0 0 1-5.714.056q.685-.264 1.351-.524zm8.526-.316q.45-.148.9-.286c-.289.1-.575.2-.868.3zm5.555-1.467c.729-.144 1.441-.265 2.134-.368q1.783.978 3.6 1.878c-.877.143-1.794.265-2.747.356q-1.893-.814-3.641-1.629zm-.117-.429c-.443.088-.892.184-1.344.288q-.739-.347-1.449-.691-1.211-.586-2.371-1.174 1.321-.621 2.54-1.227 1.932 1.212 3.914 2.33l-1.288.471zm-5.666-1.831q-1.965-1-3.761-1.983 1.419-.854 2.725-1.689c.681.477 1.386.96 2.119 1.443q.756.5 1.518.98-1.245.613-2.599 1.246zm-4.214-2.229c-1.081-.593-2.111-1.172-3.08-1.732.356-.274.709-.549 1.062-.829q.9-.712 1.742-1.417c.955.735 1.978 1.492 3.06 2.259q-1.329.844-2.782 1.716zm-.442.263q-.759.451-1.55.9c-.785.451-1.61.909-2.466 1.373-1.01-.418-1.965-.825-2.861-1.211q1.961-1.331 3.854-2.771 1.428.827 3.028 1.707zm-4.35 2.458q-.438.236-.891.473a36 36 0 0 0-4.08-.269c.724-.456 1.442-.925 2.152-1.4.885.379 1.828.78 2.821 1.194zm-5.386.648a14.43 14.43 0 0 0 1.814 1.191q-1.2.593-2.464 1.182a20.9 20.9 0 0 1-2.22-.842q1.3-.741 2.572-1.528zm-.606 2.851a24.858 24.858 0 0 0 3.483.794q-1.105.4-2.259.8a33.678 33.678 0 0 1-4-.353q1.396-.6 2.779-1.243zm4.417.921a28.942 28.942 0 0 0 3.452.2h.277a36.084 36.084 0 0 1-5.627.491q.97-.346 1.901-.693zm10.156-.968l.018.007h-.029zm1.335.039c1.253-.43 2.465-.856 3.626-1.272q1.652.774 3.292 1.494a40.122 40.122 0 0 1-6.451-.054l-.465-.17zm4.027.77c1.313 0 2.566-.066 3.755-.175q2.058.887 4.094 1.687a35.888 35.888 0 0 1-9.706-1.555q.946.041 1.859.041zm4.674-.268c.912-.1 1.781-.231 2.6-.378q2.192 1.064 4.429 2.013c-.816.078-1.685.131-2.6.146q-2.285-.874-4.427-1.783zm7.881 1.991q1.364.563 2.743 1.083a93.553 93.553 0 0 0 18.667 4.9c.223.04.448.078.673.116a97.212 97.212 0 0 1-24.45-5.9c.836-.043 1.624-.112 2.369-.202zm2.573-.023a73.893 73.893 0 0 0 7.246 2.973c-3.15-.915-6.119-1.958-8.9-3.074.372-.056.731-.116 1.075-.179.195.091.386.186.581.278zm.428-.481c.258-.056.507-.114.753-.173a72.355 72.355 0 0 0 10.207 4.312 74.376 74.376 0 0 1-10.958-4.141zm-1.689-.131c-.389.063-.8.122-1.214.174q-2.41-.994-4.621-2.052c.58-.113 1.135-.236 1.66-.362q2.062 1.185 4.178 2.238zm-6.52-2.206q-1.883-.914-3.613-1.848 1.336-.172 2.575-.251 1.389.9 2.807 1.733-.848.196-1.766.364zm-4.241-2.211q1-.373 1.927-.73c.22.148.438.3.658.442-.827.065-1.689.16-2.579.286zm-.536-.274c-1.419-.789-2.753-1.578-4-2.354q1.176-.588 2.243-1.149 1.853 1.432 3.772 2.744-.967.368-2.011.757zm-4.444-2.63q-.891-.562-1.723-1.111c-.678-.449-1.339-.9-1.977-1.34q1.3-.836 2.472-1.636 1.731 1.514 3.528 2.916-1.092.567-2.296 1.167zm-1.571-4.39q-1.2.811-2.52 1.663c-1.1-.778-2.142-1.546-3.117-2.293q1.348-1.139 2.551-2.24 1.45 1.414 3.089 2.868zm-6-.907c-.94-.73-1.818-1.438-2.63-2.117.468-.51.931-1.025 1.384-1.549.4-.464.786-.925 1.157-1.383.83.9 1.724 1.827 2.682 2.774q-1.214 1.113-2.586 2.268zm-3.591 2.866c-1.214.917-2.523 1.855-3.929 2.8-.828-.361-1.6-.7-2.315-1.024q1.936-1.564 3.744-3.259c.786.468 1.62.964 2.507 1.48zm-4.222 2.994c-.811.539-1.648 1.079-2.521 1.617-1.281.019-2.488.1-3.608.23q1.98-1.367 3.849-2.858 1.063.473 2.287 1.008zm-3.283 2.081q-1.058.637-2.175 1.27a15.406 15.406 0 0 1-1.589-.879l.111-.075a35.879 35.879 0 0 1 3.66-.319zm-2.65 1.534q-1.588.885-3.292 1.739c-.589-.162-1.138-.334-1.649-.507.214-.123.429-.245.642-.372q1.415-.835 2.779-1.736a14.49 14.49 0 0 0 1.523.872zm-3.881 2.033a84.686 84.686 0 0 1-19.8 6.86 77.609 77.609 0 0 0 18.229-7.368c.496.17 1.017.341 1.578.505zm-17.1 5.618a64.1 64.1 0 0 0 13.942-6.743c.309.13.648.266 1.008.4a76.4 76.4 0 0 1-14.945 6.34zm13.611-2.067q3.554-1.22 7.087-2.72a33.188 33.188 0 0 0 3.61.419 137.41 137.41 0 0 1-22.381 5.535 99.389 99.389 0 0 0 11.688-3.237zm11.913-2.248q.47.013.954.014a37.344 37.344 0 0 0 8.945-1.108c.223-.024.451-.048.68-.078q-1.081.353-2.193.7c-11.577 3.642-27.666 7.715-41.243 7.515a134.7 134.7 0 0 0 32.861-7.045zm13.079-2l-.005-.022c.033-.012.066-.021.1-.031v.024zm14.077 2.68h.494c3.121 1.193 6.2 2.232 9.211 3.106a93.257 93.257 0 0 0 11.339 2.566 145.173 145.173 0 0 1-27.423-6.251 35.473 35.473 0 0 0 6.383.581zm8.92-1.212a28.343 28.343 0 0 0 3.793-1.351 51.993 51.993 0 0 0 17.626 8.294 76.387 76.387 0 0 1-21.415-6.943zm2.592-2.248c.262.2.525.4.788.594a28.676 28.676 0 0 1-3.967 1.355q-2.247-1.158-4.287-2.408c.89-.286 1.692-.579 2.39-.857a29.108 29.108 0 0 1 5.08 1.316zm-4.312-1.629c.6-.257 1.106-.491 1.505-.686.588.517 1.174 1.015 1.763 1.492a30.417 30.417 0 0 0-3.264-.806zm-3.665.855q-.8-.5-1.564-1a34.931 34.931 0 0 1 3.569.321c-.604.223-1.274.452-2.002.679zm-.988.291q-.521.149-1.076.288-1.355-.78-2.63-1.582c.589-.024 1.158-.033 1.709-.032q.99.68 2.001 1.326zm-4.357-1.707c-.329-.211-.653-.424-.976-.637.43-.165.842-.326 1.243-.483.479.358.965.713 1.455 1.06-.551.012-1.127.027-1.718.06zm-1.426-.939c-1.373-.924-2.667-1.858-3.882-2.786q.743-.394 1.429-.77 1.811 1.6 3.732 3.06zm-1.744-3.946c2.911-1.614 4.962-2.9 6-3.583 1.174 1.561 2.385 3.009 3.614 4.347-1.117.478-3.105 1.313-5.754 2.357q-2.05-1.535-3.857-3.121zm-.356-.31c-1.264-1.121-2.438-2.248-3.526-3.368 3.227-2.333 5.431-4.184 6.412-5.039q1.546 2.552 3.2 4.778c-1.046.689-3.128 1.996-6.082 3.63zm-3.837-3.69c-1.141-1.192-2.185-2.373-3.139-3.526a70.856 70.856 0 0 0 6.528-7.408q1.471 3.11 3.1 5.83c-.938.826-3.173 2.712-6.485 5.104zm-3.421-3.871c-.277-.341-.549-.68-.811-1.016-.694-.888-1.345-1.771-1.958-2.643a57.725 57.725 0 0 0 6.338-11.41 78.321 78.321 0 0 0 3.03 7.55 69.6 69.6 0 0 1-6.595 7.519zm-1.415-.587c.291.374.587.743.887 1.111-.568.555-1.167 1.129-1.8 1.713q-1.472-1.457-2.742-2.84c.654-.818 1.267-1.626 1.842-2.417q.862 1.206 1.817 2.433zm-3.955-.348c-1-1.095-1.893-2.139-2.694-3.113q.978-1.752 1.844-3.592c.808 1.367 1.713 2.785 2.725 4.233q-.87 1.215-1.871 2.473zm-.376.465q-.575.709-1.192 1.424-.659.766-1.386 1.555c-.907-.767-1.728-1.491-2.463-2.161q1.277-1.862 2.411-3.843c.791.951 1.668 1.967 2.634 3.026zm-5.386.5c-1.751-1.618-2.965-2.885-3.616-3.591a50.637 50.637 0 0 0 1.758-6.159 66.745 66.745 0 0 0 4.306 5.85c-.731 1.29-1.546 2.594-2.444 3.901zm-.256.367q-1.286 1.838-2.8 3.666c-1.32-.842-2.338-1.523-3.014-1.984a44.05 44.05 0 0 0 2.288-5.171c.693.746 1.878 1.967 3.53 3.49zm-3.092 4.009c-1.1 1.293-2.288 2.574-3.581 3.827-1.043-.491-1.812-.866-2.267-1.091a40.8 40.8 0 0 0 2.918-4.667c.672.458 1.663 1.12 2.934 1.933zm.408.26c.675.427 1.416.89 2.224 1.383-1.174 1.092-2.444 2.194-3.816 3.289q-1.063-.481-1.925-.885 1.852-1.808 3.521-3.786zm-1.851 4.88c-1.367 1.081-2.833 2.154-4.4 3.2-.718.1-1.4.22-2.03.347q-.465.094-.909.2 1.236-.916 2.411-1.893 1.573-1.308 3.038-2.727c.564.267 1.197.558 1.894.874zm-6.326 3.983q.5-.1 1.029-.19-1.632 1.058-3.411 2.073c-.38-.139-.738-.277-1.068-.412q.753-.5 1.485-1.018c.625-.16 1.281-.313 1.969-.452zm-3.988 1.243l-.263-.117c.27-.089.552-.179.842-.268-.186.131-.379.259-.575.386zm-1.9.471c.317-.123.661-.251 1.026-.38l.428.2a60.48 60.48 0 0 1-7.018 3.883 43.477 43.477 0 0 0 5.571-3.701zm22.1 2.431c1.665-.523 3.284-1.053 4.843-1.578q.815.106 1.61.179 1.475.52 2.893.894c9.743 3.317 22.6 6.833 35.006 7.616h-76.613c11.285-1.121 23.166-4.246 32.266-7.109zm51.564 7.042c.123.023.244.048.363.069h-.373zm-24.59-12.41c-.508.245-1.171.542-1.97.861-.189-.031-.381-.062-.579-.092a36.578 36.578 0 0 0-4.516-.374q-1.017-.69-1.978-1.4c2.642-1.046 4.6-1.871 5.654-2.324q1.678 1.793 3.394 3.331zm-26.718-20.9a65.605 65.605 0 0 0 5.449-22.059 99.016 99.016 0 0 0 3.679 14.938 55.972 55.972 0 0 1-6.386 11.671c-1.048-1.515-1.981-2.994-2.806-4.412.026-.048.049-.092.068-.136zm-.713.491q-.835 1.8-1.878 3.683a62.043 62.043 0 0 1-4.444-6.128 62.607 62.607 0 0 0 1.128-8.906 61.645 61.645 0 0 0 5.198 11.35zm-14.011 15.49c.436.217 1.188.584 2.215 1.068a55.521 55.521 0 0 1-6.24 5.154c-.931.247-1.781.512-2.538.774a40.1 40.1 0 0 0 6.566-6.998z" data-name="Path 125" transform="translate(-1000.41 -496.278)"/>
                <path id="prefix__Rectangle_60" fill="#3a90b3" d="M0 0H125.801V1.184H0z" data-name="Rectangle 60" transform="translate(0 75.151)"/>
            </g>
            <g id="prefix__Group_52" data-name="Group 52" transform="translate(0 79.175)">
                <g id="prefix__Group_50" data-name="Group 50">
                    <path id="prefix__Path_126" d="M992.022 615.705l5.022-10.906 5.154 10.906h-2.144l-.939-1.967h-5.2l-.908 1.967zm2.236-2.712h4.514l-2.294-4.841z" data-name="Path 126" transform="translate(-992.022 -604.575)"/>
                    <path id="prefix__Path_127" d="M1017.113 615.705h-2.2l-3.456-4.813h-.836v4.813h-1.936v-9.386a1.361 1.361 0 0 0-.968-1.3.056.056 0 0 0-.045-.015l-.313-.074v-.13h3.219c1.757 0 5.065.015 5.065 3.054a2.645 2.645 0 0 1-2.131 2.757 6.031 6.031 0 0 1-1.445.223l1.758.313zm-4.26-5.84l.03-.015c.462-.268.834-.833.834-2a2.107 2.107 0 0 0-2.086-2.309l-1.014.015v4.558h1.014a2.4 2.4 0 0 0 1.222-.249z" data-name="Path 127" transform="translate(-996.137 -604.575)"/>
                    <path id="prefix__Path_128" d="M1032.021 613.581a4.863 4.863 0 0 1-4.44 2.265c-3.322 0-5.26-2.532-5.26-5.677 0-3.128 1.937-5.676 5.26-5.676a4.92 4.92 0 0 1 4.455 2.28l-.418.67c-3.411-4.1-7.21-1.311-7.21 2.726 0 4.054 3.844 6.839 7.24 2.756z" data-name="Path 128" transform="translate(-1000.153 -604.493)"/>
                    <path id="prefix__Path_129" d="M1048.6 615.57v.135h-2.4a.9.9 0 0 1-.865-.894v-4.261h-4.648v5.155h-1.938v-9.595a1.042 1.042 0 0 0-.445-.849 1.784 1.784 0 0 0-.568-.254l-.312-.074v-.133h2.37a.9.9 0 0 1 .893.894v4.106h4.648v-5h1.937v9.6a1.034 1.034 0 0 0 .446.848 1.485 1.485 0 0 0 .566.252z" data-name="Path 129" transform="translate(-1004.207 -604.575)"/>
                    <path id="prefix__Path_130" d="M1057.444 615.705h-1.789v-9.386a1.357 1.357 0 0 0-.967-1.3.054.054 0 0 0-.045-.015l-.313-.074v-.13h3.114z" data-name="Path 130" transform="translate(-1008.742 -604.575)"/>
                    <path id="prefix__Path_131" d="M1070.315 605.693h-3.47v10.012h-1.938v-10.012h-3.472v-.893h8.88z" data-name="Path 131" transform="translate(-1010.649 -604.575)"/>
                    <path id="prefix__Path_132" d="M1083.747 614.961v.744h-7.016v-9.386a1.36 1.36 0 0 0-.969-1.3.055.055 0 0 0-.045-.015l-.313-.074v-.13h8.343v.745h-5.08v4.023h4.216v.894h-4.216v4.5z" data-name="Path 132" transform="translate(-1014.398 -604.575)"/>
                    <path id="prefix__Path_133" d="M1098.949 613.581a4.858 4.858 0 0 1-4.44 2.265c-3.322 0-5.258-2.532-5.258-5.677 0-3.128 1.936-5.676 5.258-5.676a4.922 4.922 0 0 1 4.455 2.28l-.418.67c-3.412-4.1-7.21-1.311-7.21 2.726 0 4.054 3.842 6.839 7.24 2.756z" data-name="Path 133" transform="translate(-1018.114 -604.493)"/>
                    <path id="prefix__Path_134" d="M1113.849 605.693h-3.471v10.012h-1.937v-10.012h-3.471v-.893h8.879z" data-name="Path 134" transform="translate(-1022.332 -604.575)"/>
                    <path id="prefix__Path_135" d="M1129.037 604.8v7.389c0 .672-.222 3.74-4.364 3.74 0 0-4.41.21-4.41-3.74v-5.869a1.342 1.342 0 0 0-.968-1.3.054.054 0 0 0-.044-.015l-.315-.074v-.131h3.264v7.389a2.619 2.619 0 0 0 2.621 2.936c.865 0 3.323-.4 3.323-2.936V604.8z" data-name="Path 135" transform="translate(-1026.08 -604.575)"/>
                    <path id="prefix__Path_136" d="M1144.333 615.705h-2.205l-3.456-4.813h-.834v4.813h-1.938v-9.386a1.359 1.359 0 0 0-.969-1.3.053.053 0 0 0-.044-.015l-.312-.074v-.13h3.218c1.759 0 5.067.015 5.067 3.054a2.643 2.643 0 0 1-2.132 2.757 6 6 0 0 1-1.444.223l1.757.313zm-4.262-5.84l.03-.015c.463-.268.836-.833.836-2a2.108 2.108 0 0 0-2.087-2.309l-1.012.015v4.558h1.012a2.4 2.4 0 0 0 1.221-.249z" data-name="Path 136" transform="translate(-1030.276 -604.575)"/>
                    <path id="prefix__Path_137" d="M1149.948 615.705l5.021-10.906 5.155 10.906h-2.144l-.939-1.967h-5.2l-.908 1.967zm2.234-2.712h4.514l-2.293-4.841z" data-name="Path 137" transform="translate(-1034.402 -604.575)"/>
                    <path id="prefix__Path_138" d="M1173.759 614.811v.894h-7.152v-9.386a1.353 1.353 0 0 0-.983-1.3.055.055 0 0 0-.045-.015l-.3-.074v-.13h3.114v10.012z" data-name="Path 138" transform="translate(-1038.516 -604.575)"/>
                </g>
                <g id="prefix__Group_51" data-name="Group 51" transform="translate(31.263 13.82)">
                    <path id="prefix__Path_139" d="M1037.063 631.751h-1.326v-6.97a1.008 1.008 0 0 0-.719-.961.042.042 0 0 0-.034-.011l-.232-.056v-.1h2.311z" data-name="Path 139" transform="translate(-1034.752 -623.455)"/>
                    <path id="prefix__Path_140" d="M1046.6 623.655v8.1l-5.409-5.408v5.408h-.663v-6.184a2.191 2.191 0 0 0-.321-1.415 1.2 1.2 0 0 0-.31-.266 2.078 2.078 0 0 0-.321-.144v-.088a2.343 2.343 0 0 1 1.637.674l4.724 4.723v-5.4z" data-name="Path 140" transform="translate(-1036.046 -623.455)"/>
                    <path id="prefix__Path_141" d="M1056.306 628.591a2.008 2.008 0 0 1 .232.94 2.059 2.059 0 0 1-.818 1.681 2.867 2.867 0 0 1-1.825.609 3.744 3.744 0 0 1-.64-.045 2.722 2.722 0 0 1-.853-.255 2.379 2.379 0 0 1-.907-.828 2.659 2.659 0 0 1-.421-1.2h.552a1.771 1.771 0 0 0 .178.631 1.919 1.919 0 0 0 .83.786 2.483 2.483 0 0 0 1.139.266 1.74 1.74 0 0 0 1.051-.311 1.026 1.026 0 0 0 .464-.885 1.333 1.333 0 0 0-.631-1.073 12.709 12.709 0 0 0-1.349-.807 9.817 9.817 0 0 1-1.392-.84 2.117 2.117 0 0 1-.931-1.715 1.967 1.967 0 0 1 .753-1.583 2.637 2.637 0 0 1 1.7-.586h.011a2.932 2.932 0 0 1 1.594.432 2.175 2.175 0 0 1 .663.819 3.059 3.059 0 0 1 .233.741h-.6a1.674 1.674 0 0 0-.7-1.051 2.1 2.1 0 0 0-1.195-.311 1.467 1.467 0 0 0-.906.322.972.972 0 0 0-.42.807.927.927 0 0 0 .233.609 6.73 6.73 0 0 0 1.724 1.139c.652.342 1.05.564 1.238.686a2.841 2.841 0 0 1 .993 1.022z" data-name="Path 141" transform="translate(-1039.108 -623.382)"/>
                    <path id="prefix__Path_142" d="M1066.235 625.922c0 2.278-2.422 2.267-3.725 2.256v3.573h-1.438v-6.97a1.009 1.009 0 0 0-.719-.961.04.04 0 0 0-.034-.011l-.232-.056v-.1h2.39c1.303.002 3.758.013 3.758 2.269zm-1.425 0a1.564 1.564 0 0 0-1.548-1.714l-.752.011v3.381h.752c.429 0 1.548.026 1.548-1.678z" data-name="Path 142" transform="translate(-1041.55 -623.455)"/>
                    <path id="prefix__Path_143" d="M1072.464 631.751h-1.328v-6.97a1.007 1.007 0 0 0-.717-.961.044.044 0 0 0-.034-.011l-.234-.056v-.1h2.313z" data-name="Path 143" transform="translate(-1044.251 -623.455)"/>
                    <path id="prefix__Path_144" d="M1082.219 631.751h-1.636l-2.566-3.573h-.62v3.573h-1.438v-6.97a1.007 1.007 0 0 0-.719-.961.043.043 0 0 0-.034-.011l-.232-.056v-.1h2.39c1.305 0 3.761.011 3.761 2.267a1.96 1.96 0 0 1-1.583 2.046 4.462 4.462 0 0 1-1.073.165l1.305.233zm-3.164-4.336l.023-.012c.342-.2.62-.619.62-1.481a1.565 1.565 0 0 0-1.55-1.714l-.752.011v3.381h.752a1.782 1.782 0 0 0 .908-.184z" data-name="Path 144" transform="translate(-1045.546 -623.455)"/>
                    <path id="prefix__Path_145" d="M1086.388 631.751l3.726-8.1 3.827 8.1h-1.593l-.7-1.46h-3.859l-.675 1.46zm1.658-2.013h3.352l-1.7-3.594z" data-name="Path 145" transform="translate(-1048.609 -623.455)"/>
                    <path id="prefix__Path_146" d="M1103.454 624.317h-2.576v7.434h-1.439v-7.434h-2.577v-.662h6.592z" data-name="Path 146" transform="translate(-1051.419 -623.455)"/>
                    <path id="prefix__Path_147" d="M1109.844 631.751h-1.327v-6.97a1.006 1.006 0 0 0-.718-.961.043.043 0 0 0-.034-.011l-.231-.056v-.1h2.31z" data-name="Path 147" transform="translate(-1054.283 -623.455)"/>
                    <path id="prefix__Path_148" d="M1120.39 627.631c0 2.932-1.748 4.214-3.9 4.214s-3.906-1.281-3.906-4.214c0-2.832 1.749-4.2 3.906-4.2s3.9 1.345 3.9 4.2zm-1.525 0c0-2.6-.952-3.65-2.378-3.65s-2.366 1.062-2.366 3.65c0 2.676.95 3.672 2.366 3.672s2.377-.996 2.377-3.672z" data-name="Path 148" transform="translate(-1055.637 -623.394)"/>
                    <path id="prefix__Path_149" d="M1131.563 623.655v8.1l-5.41-5.408v5.408h-.663v-6.184a2.187 2.187 0 0 0-.321-1.415 1.188 1.188 0 0 0-.309-.266 2.014 2.014 0 0 0-.321-.144v-.088a2.345 2.345 0 0 1 1.636.674l4.722 4.723v-5.4z" data-name="Path 149" transform="translate(-1058.847 -623.455)"/>
                </g>
            </g>
        </g>
    </g>
</svg>
