<svg xmlns="http://www.w3.org/2000/svg" width="130.363" height="138.653" viewBox="0 0 130.363 138.653">
    <defs>
        <style>
            .prefix__cls-1{fill:#282828}.prefix__cls-2{fill:#3a90b3}
        </style>
    </defs>
    <g id="prefix__Group_43" data-name="Group 43" transform="translate(-55.301 -710.498)">
        <g id="prefix__Group_38" data-name="Group 38">
            <path id="prefix__Path_92" d="M66.688 824.269h-4.452v12.838h-2.484v-12.838H55.3v-1.146h11.388z" class="prefix__cls-1" data-name="Path 92"/>
            <path id="prefix__Path_93" d="M82.735 836.935v.172h-3.076a1.155 1.155 0 0 1-1.108-1.147v-5.46H72.59v6.609h-2.485V824.8a1.333 1.333 0 0 0-.572-1.088 2.22 2.22 0 0 0-.726-.325l-.4-.094v-.172h3.039a1.148 1.148 0 0 1 1.146 1.146v5.273h5.961v-6.419h2.484v12.3a1.325 1.325 0 0 0 .573 1.087 1.9 1.9 0 0 0 .726.324z" class="prefix__cls-1" data-name="Path 93"/>
            <path id="prefix__Path_94" d="M94.579 836.151v.956h-9v-12.038a1.74 1.74 0 0 0-1.243-1.661.066.066 0 0 0-.056-.019l-.4-.094v-.172h10.7v.954h-6.517v5.157h5.407v1.147h-5.407v5.77z" class="prefix__cls-1" data-name="Path 94"/>
            <path id="prefix__Path_95" d="M113.318 834.487a6.221 6.221 0 0 1-5.691 2.906c-4.262 0-6.746-3.247-6.746-7.278 0-4.013 2.484-7.279 6.746-7.279a6.306 6.306 0 0 1 5.711 2.923l-.535.858c-4.375-5.253-9.247-1.681-9.247 3.5 0 5.2 4.929 8.769 9.285 3.533z" class="prefix__cls-1" data-name="Path 95"/>
            <path id="prefix__Path_96" d="M115.057 837.107l6.438-13.984 6.61 13.984h-2.751l-1.2-2.522h-6.667l-1.165 2.522zm2.864-3.478h5.79l-2.943-6.21z" class="prefix__cls-1" data-name="Path 96"/>
            <path id="prefix__Path_97" d="M140.064 827.039c0 3.936-4.184 3.916-6.44 3.9v6.172h-2.482v-12.042a1.74 1.74 0 0 0-1.242-1.661.071.071 0 0 0-.058-.019l-.4-.094v-.172h4.127c2.253 0 6.495.02 6.495 3.916zm-2.465 0a2.7 2.7 0 0 0-2.674-2.962l-1.3.02v5.844h1.3c.744 0 2.675.037 2.675-2.902z" class="prefix__cls-1" data-name="Path 97"/>
            <path id="prefix__Path_98" d="M146.157 837.107h-2.292v-12.038a1.742 1.742 0 0 0-1.242-1.661.072.072 0 0 0-.058-.019l-.4-.094v-.172h3.993z" class="prefix__cls-1" data-name="Path 98"/>
            <path id="prefix__Path_99" d="M160.218 824.269h-4.451v12.838h-2.484v-12.838h-4.452v-1.146h11.387z" class="prefix__cls-1" data-name="Path 99"/>
            <path id="prefix__Path_100" d="M160.408 837.107l6.438-13.984 6.611 13.984h-2.752l-1.2-2.522h-6.668l-1.166 2.522zm2.866-3.478h5.788l-2.941-6.21z" class="prefix__cls-1" data-name="Path 100"/>
            <path id="prefix__Path_101" d="M185.664 835.96v1.147h-9.171v-12.038a1.734 1.734 0 0 0-1.26-1.661.073.073 0 0 0-.058-.019l-.383-.094v-.172h3.994v12.837z" class="prefix__cls-1" data-name="Path 101"/>
        </g>
        <g id="prefix__Group_39" data-name="Group 39">
            <path id="prefix__Path_102" d="M90.3 849.009h-1.625l-2.54-3.538h-.613v3.538H84.1v-6.9a1 1 0 0 0-.712-.954.046.046 0 0 0-.033-.009l-.229-.053v-.1h2.365c1.292 0 3.722.012 3.722 2.244a1.942 1.942 0 0 1-1.565 2.028 4.349 4.349 0 0 1-1.063.164l1.293.232zm-3.132-4.293l.022-.012c.34-.2.613-.61.613-1.468a1.549 1.549 0 0 0-1.533-1.7l-.744.01v3.35h.744a1.766 1.766 0 0 0 .894-.18z" class="prefix__cls-1" data-name="Path 102"/>
            <path id="prefix__Path_103" d="M97.414 848.462v.547h-5.158v-6.9a1 1 0 0 0-.713-.954.045.045 0 0 0-.033-.009l-.229-.053v-.1h6.133v.549h-3.735v2.958h3.1v.657h-3.1v3.308z" class="prefix__cls-1" data-name="Path 103"/>
            <path id="prefix__Path_104" d="M98.507 849.009l3.691-8.017 3.788 8.017h-1.577l-.69-1.446H99.9l-.668 1.446zm1.643-1.993h3.318l-1.687-3.559z" class="prefix__cls-1" data-name="Path 104"/>
            <path id="prefix__Path_105" d="M112.983 848.353v.656h-5.256v-6.9a1 1 0 0 0-.723-.954.045.045 0 0 0-.032-.009l-.22-.053v-.1h2.289v7.361z" class="prefix__cls-1" data-name="Path 105"/>
            <path id="prefix__Path_106" d="M122.4 848.462v.547h-5.157v-6.9a1 1 0 0 0-.712-.954.044.044 0 0 0-.032-.009l-.23-.053v-.1h6.131v.549h-3.734v2.958h3.1v.657h-3.1v3.308z" class="prefix__cls-1" data-name="Path 106"/>
            <path id="prefix__Path_107" d="M128.979 845.954a1.987 1.987 0 0 1 .23.932 2.038 2.038 0 0 1-.81 1.662 2.821 2.821 0 0 1-1.807.6 3.749 3.749 0 0 1-.636-.045 2.7 2.7 0 0 1-.842-.25 2.385 2.385 0 0 1-.9-.821 2.624 2.624 0 0 1-.415-1.182h.547a1.677 1.677 0 0 0 .175.622 1.871 1.871 0 0 0 .821.777 2.449 2.449 0 0 0 1.128.263 1.73 1.73 0 0 0 1.04-.3 1.025 1.025 0 0 0 .461-.879 1.325 1.325 0 0 0-.625-1.061 12.957 12.957 0 0 0-1.336-.8 9.583 9.583 0 0 1-1.379-.833 2.085 2.085 0 0 1-.92-1.7 1.943 1.943 0 0 1 .744-1.565 2.6 2.6 0 0 1 1.688-.58h.01a2.863 2.863 0 0 1 1.576.428 2.137 2.137 0 0 1 .658.809 3.038 3.038 0 0 1 .23.733h-.591a1.649 1.649 0 0 0-.691-1.039 2.06 2.06 0 0 0-1.182-.306 1.447 1.447 0 0 0-.9.316.963.963 0 0 0-.416.8.924.924 0 0 0 .23.6 6.707 6.707 0 0 0 1.707 1.129c.648.338 1.041.559 1.227.677a2.841 2.841 0 0 1 .978 1.013z" class="prefix__cls-1" data-name="Path 107"/>
            <path id="prefix__Path_108" d="M136.5 841.65h-2.55v7.359h-1.423v-7.359h-2.552v-.658h6.525z" class="prefix__cls-1" data-name="Path 108"/>
            <path id="prefix__Path_109" d="M136.609 849.009l3.691-8.017 3.788 8.017h-1.575l-.691-1.446H138l-.668 1.446zm1.643-1.993h3.319l-1.686-3.559z" class="prefix__cls-1" data-name="Path 109"/>
            <path id="prefix__Path_110" d="M150.725 841.65h-2.552v7.359h-1.424v-7.359H144.2v-.658h6.527z" class="prefix__cls-1" data-name="Path 110"/>
            <path id="prefix__Path_111" d="M157.841 848.462v.547h-5.157v-6.9a1 1 0 0 0-.712-.954.046.046 0 0 0-.033-.009l-.23-.053v-.1h6.132v.549h-3.735v2.958h3.1v.657h-3.1v3.308z" class="prefix__cls-1" data-name="Path 111"/>
        </g>
        <g id="prefix__Group_42" data-name="Group 42">
            <g id="prefix__Group_41" data-name="Group 41">
                <g id="prefix__Group_40" data-name="Group 40">
                    <path id="prefix__Path_112" d="M112.6 733.849v82.46h10.319v-24.241c-2.251-1.424-4.691-2.963-6.754-4.548v-6.28a72.032 72.032 0 0 0 9.756 6.993v28.076h1.879v-71.022a33.739 33.739 0 0 1-15.2-11.438z" class="prefix__cls-2" data-name="Path 112"/>
                    <path id="prefix__Path_113" fill="#284766" d="M88.026 710.5v47.841H96.9a62.372 62.372 0 0 0 4.069 6.613v9.669c-3.189-3.13-5.065-5.255-5.065-5.255v46.943h6.379v-98.12h10.971c6.221 17.822 17.732 26.7 17.732 26.7v71.423h6.566v-17.653c-1.5-.372-2.626-.815-4.127-1.317v-4.986a65.694 65.694 0 0 0 14.258 5.1v18.85h5.254V710.5z" data-name="Path 113"/>
                </g>
                <path id="prefix__Rectangle_54" d="M0 0H78.983V2.254H0z" class="prefix__cls-2" data-name="Rectangle 54" transform="translate(81.084 818.184)"/>
            </g>
        </g>
    </g>
</svg>
