<svg xmlns="http://www.w3.org/2000/svg" width="147.896" height="114.011" viewBox="0 0 147.896 114.011">
    <defs>
        <style>
            .prefix__cls-2{fill:#284766}.prefix__cls-3{fill:#272727}
        </style>
    </defs>
    <g id="prefix__Group_37" data-name="Group 37" transform="translate(-236.466 -903.467)">
        <g id="prefix__Group_33" data-name="Group 33">
            <g id="prefix__Group_31" data-name="Group 31">
                <g id="prefix__Group_30" data-name="Group 30">
                    <g id="prefix__Group_29" data-name="Group 29">
                        <path id="prefix__Path_67" fill="#3a90b3" d="M383.346 982.016s-25.879-27.011-72.866-27.062h-.131c-46.987.051-72.868 27.062-72.868 27.062s30.756-20.284 72.868-19.81h.131c42.112-.474 72.866 19.81 72.866 19.81z" data-name="Path 67"/>
                    </g>
                </g>
            </g>
            <g id="prefix__Group_32" data-name="Group 32">
                <path id="prefix__Path_68" d="M299.924 953.359l7.813-17.4q.742-1.855 1.458-4.056t1.351-4.743q.741 2.7 1.485 4.9t1.432 3.9l7.827 17.429a117.127 117.127 0 0 1 13.29 1.967l-24.139-51.893-24.171 51.893a117.951 117.951 0 0 1 13.654-1.997z" class="prefix__cls-2" data-name="Path 68"/>
                <path id="prefix__Path_69" d="M280.694 967.326l-7.837 16.822h13.252l8.618-19.11a139.9 139.9 0 0 0-14.033 2.288z" class="prefix__cls-2" data-name="Path 69"/>
                <path id="prefix__Path_70" d="M326.259 965.058l8.406 19.09h13.307l-7.826-16.82a139.175 139.175 0 0 0-13.887-2.27z" class="prefix__cls-2" data-name="Path 70"/>
            </g>
        </g>
        <g id="prefix__Group_36" data-name="Group 36">
            <g id="prefix__Group_34" data-name="Group 34">
                <path id="prefix__Path_71" d="M248.81 1003.966l-1.756-3.992h-6.142l-1.8 3.992h-2.647l7.507-16.115 7.5 16.115zm-6.966-6.088h4.32l-1.588-3.537c-.092-.227-.187-.487-.286-.777s-.2-.621-.3-.98q-.128.507-.27.946c-.1.293-.193.561-.291.811z" class="prefix__cls-3" data-name="Path 71"/>
                <path id="prefix__Path_72" d="M252.93 1003.966v-15.5h2.52v13.244h5.632v2.257z" class="prefix__cls-3" data-name="Path 72"/>
                <path id="prefix__Path_73" d="M266.95 990.6v13.363h-2.521V990.6h-4.118v-2.138h10.736v2.138z" class="prefix__cls-3" data-name="Path 73"/>
                <path id="prefix__Path_74" d="M281.635 1003.966l-1.757-3.992h-6.142l-1.8 3.992h-2.648l7.507-16.115 7.5 16.115zm-6.967-6.088h4.32l-1.589-3.537c-.091-.227-.186-.487-.285-.777s-.2-.621-.3-.98q-.127.507-.269.946c-.1.293-.193.561-.292.811z" class="prefix__cls-3" data-name="Path 74"/>
                <path id="prefix__Path_75" d="M285.8 1003.966v-15.5h2.52v15.5z" class="prefix__cls-3" data-name="Path 75"/>
                <path id="prefix__Path_76" d="M294.3 997.028v6.938h-2.36v-15.5h3.515a10.975 10.975 0 0 1 2.4.2 3.751 3.751 0 0 1 1.455.668 3.664 3.664 0 0 1 1.112 1.449 4.772 4.772 0 0 1 .391 1.949 4.344 4.344 0 0 1-.9 2.915 3.968 3.968 0 0 1-2.658 1.266l5.337 7.053h-2.849l-5.158-6.938zm.158-1.956h.458a5.075 5.075 0 0 0 2.657-.469 1.884 1.884 0 0 0 .656-1.65 2.106 2.106 0 0 0-.7-1.8 4.612 4.612 0 0 0-2.608-.524h-.458z" class="prefix__cls-3" data-name="Path 76"/>
                <path id="prefix__Path_77" d="M319.212 996.024h6.143c0 .1 0 .252.01.444.02.5.032.841.032 1.017a6.733 6.733 0 0 1-1.875 5.081 7.3 7.3 0 0 1-5.283 1.814 9.646 9.646 0 0 1-3.4-.563 7.253 7.253 0 0 1-2.615-1.693 7.737 7.737 0 0 1-1.689-2.638 8.9 8.9 0 0 1-.587-3.243 8.547 8.547 0 0 1 .6-3.235 7.515 7.515 0 0 1 1.774-2.618 7.659 7.659 0 0 1 2.658-1.7 9.105 9.105 0 0 1 3.261-.58 7.7 7.7 0 0 1 3.277.668 7.265 7.265 0 0 1 2.578 2.041l-1.843 1.387a5.089 5.089 0 0 0-1.768-1.356 5.314 5.314 0 0 0-2.2-.444 5.529 5.529 0 0 0-4.114 1.614 5.731 5.731 0 0 0-1.593 4.2 5.853 5.853 0 0 0 1.593 4.263 5.517 5.517 0 0 0 4.135 1.637 5.234 5.234 0 0 0 3.4-1.009 3.335 3.335 0 0 0 1.239-2.739v-.225h-3.728z" class="prefix__cls-3" data-name="Path 77"/>
                <path id="prefix__Path_78" d="M330.4 997.028v6.938h-2.362v-15.5h3.516a10.975 10.975 0 0 1 2.4.2 3.751 3.751 0 0 1 1.455.668 3.664 3.664 0 0 1 1.112 1.449 4.788 4.788 0 0 1 .391 1.949 4.349 4.349 0 0 1-.9 2.915 3.966 3.966 0 0 1-2.658 1.266l5.337 7.053h-2.848l-5.157-6.938zm.159-1.956h.455a5.074 5.074 0 0 0 2.658-.469 1.886 1.886 0 0 0 .655-1.65 2.106 2.106 0 0 0-.7-1.8 4.618 4.618 0 0 0-2.61-.524h-.455z" class="prefix__cls-3" data-name="Path 78"/>
                <path id="prefix__Path_79" d="M356.082 996.243a7.86 7.86 0 0 1-2.432 5.757 8.372 8.372 0 0 1-2.694 1.766 8.238 8.238 0 0 1-3.156.618 8.415 8.415 0 0 1-3.191-.62 8.247 8.247 0 0 1-2.684-1.764 7.963 7.963 0 0 1-1.8-2.613 8.311 8.311 0 0 1 0-6.27 7.915 7.915 0 0 1 1.8-2.632 8.194 8.194 0 0 1 2.689-1.764 8.7 8.7 0 0 1 6.359 0 8.208 8.208 0 0 1 2.683 1.761 8.11 8.11 0 0 1 1.807 2.651 7.975 7.975 0 0 1 .619 3.11zm-2.627 0a5.885 5.885 0 0 0-.429-2.23 5.764 5.764 0 0 0-1.233-1.884 5.38 5.38 0 0 0-1.817-1.256 5.566 5.566 0 0 0-6.187 1.256A5.6 5.6 0 0 0 342.56 994a5.991 5.991 0 0 0-.423 2.242 5.9 5.9 0 0 0 .423 2.227 5.717 5.717 0 0 0 1.229 1.873 5.526 5.526 0 0 0 4.011 1.7 5.41 5.41 0 0 0 2.156-.436 5.567 5.567 0 0 0 1.831-1.26 5.7 5.7 0 0 0 1.239-1.881 5.815 5.815 0 0 0 .429-2.222z" class="prefix__cls-3" data-name="Path 79"/>
                <path id="prefix__Path_80" d="M358.908 988.465h2.49v9.413a4.52 4.52 0 0 0 .968 3.15 4.492 4.492 0 0 0 5.78 0 4.516 4.516 0 0 0 .97-3.15v-9.413h2.52v9.645a6.328 6.328 0 0 1-1.589 4.705 8.094 8.094 0 0 1-9.561.005 6.353 6.353 0 0 1-1.578-4.71z" class="prefix__cls-3" data-name="Path 80"/>
                <path id="prefix__Path_81" d="M377.47 997.011v6.955h-2.361v-15.5h3.812a12.173 12.173 0 0 1 2.493.183 3.835 3.835 0 0 1 1.391.61 3.6 3.6 0 0 1 1.145 1.455 4.85 4.85 0 0 1 .412 2.019 4.954 4.954 0 0 1-.412 2.032 3.51 3.51 0 0 1-1.145 1.46 3.793 3.793 0 0 1-1.391.6 12.484 12.484 0 0 1-2.493.182h-1.451zm.159-2.068h.645a5.783 5.783 0 0 0 2.8-.452 1.783 1.783 0 0 0 .7-1.612 1.954 1.954 0 0 0-.747-1.746 5.2 5.2 0 0 0-2.748-.509h-.645z" class="prefix__cls-3" data-name="Path 81"/>
            </g>
            <g id="prefix__Group_35" data-name="Group 35">
                <path id="prefix__Path_82" d="M276.617 1013.188v4.049h-1.378v-9.047h2.052a6.307 6.307 0 0 1 1.4.118 2.2 2.2 0 0 1 .85.388 2.136 2.136 0 0 1 .649.847 2.778 2.778 0 0 1 .229 1.136 2.542 2.542 0 0 1-.526 1.7 2.3 2.3 0 0 1-1.552.737l3.116 4.118h-1.662l-3.01-4.049zm.093-1.143h.266a2.973 2.973 0 0 0 1.55-.272 1.1 1.1 0 0 0 .384-.963 1.225 1.225 0 0 0-.411-1.052 2.692 2.692 0 0 0-1.523-.307h-.266z" class="prefix__cls-3" data-name="Path 82"/>
                <path id="prefix__Path_83" d="M282.328 1017.237v-9.047h5.047v1.245H283.8v2.268h3.578V1013H283.8v2.922h3.578v1.317z" class="prefix__cls-3" data-name="Path 83"/>
                <path id="prefix__Path_84" d="M295.039 1017.237l-1.026-2.332h-3.584l-1.051 2.332h-1.545l4.383-9.406 4.373 9.406zm-4.067-3.553h2.522l-.927-2.067c-.054-.128-.109-.28-.167-.454s-.115-.359-.173-.57c-.049.2-.1.383-.157.553s-.114.328-.171.471z" class="prefix__cls-3" data-name="Path 84"/>
                <path id="prefix__Path_85" d="M297.443 1017.237v-9.047h1.471v7.73h3.286v1.317z" class="prefix__cls-3" data-name="Path 85"/>
                <path id="prefix__Path_86" d="M307.213 1017.237v-9.047h5.049v1.245h-3.579v2.268h3.579V1013h-3.579v2.922h3.579v1.317z" class="prefix__cls-3" data-name="Path 86"/>
                <path id="prefix__Path_87" d="M313.43 1015.427l1.173-.547a1.625 1.625 0 0 0 .613.925 1.885 1.885 0 0 0 1.137.318 1.452 1.452 0 0 0 1.041-.365 1.276 1.276 0 0 0 .386-.978q0-.794-1.323-1.419c-.122-.06-.217-.105-.284-.136a6.278 6.278 0 0 1-1.992-1.319 2.159 2.159 0 0 1-.5-1.442 2.312 2.312 0 0 1 .75-1.793 2.807 2.807 0 0 1 1.968-.686 3.349 3.349 0 0 1 1.676.385 2.049 2.049 0 0 1 .932 1.11l-1.15.6a1.846 1.846 0 0 0-.6-.625 1.549 1.549 0 0 0-1.687.109 1.056 1.056 0 0 0-.35.83q0 .817 1.534 1.52c.077.037.14.065.185.084a5.513 5.513 0 0 1 1.842 1.211 2.2 2.2 0 0 1 .5 1.474 2.663 2.663 0 0 1-.809 2.042 3.086 3.086 0 0 1-2.188.757 3.162 3.162 0 0 1-1.893-.534 2.474 2.474 0 0 1-.961-1.521z" class="prefix__cls-3" data-name="Path 87"/>
                <path id="prefix__Path_88" d="M323.818 1009.435v7.8h-1.472v-7.8h-2.4v-1.245h6.266v1.245z" class="prefix__cls-3" data-name="Path 88"/>
                <path id="prefix__Path_89" d="M332.389 1017.237l-1.025-2.332h-3.584l-1.051 2.332h-1.546l4.382-9.406 4.376 9.406zm-4.067-3.553h2.522l-.927-2.067c-.055-.128-.109-.28-.167-.454s-.115-.359-.173-.57c-.05.2-.1.383-.157.553s-.113.328-.17.471z" class="prefix__cls-3" data-name="Path 89"/>
                <path id="prefix__Path_90" d="M337.024 1009.435v7.8h-1.471v-7.8h-2.4v-1.245h6.266v1.245z" class="prefix__cls-3" data-name="Path 90"/>
                <path id="prefix__Path_91" d="M340.54 1017.237v-9.047h5.049v1.245h-3.578v2.268h3.578V1013h-3.578v2.922h3.578v1.317z" class="prefix__cls-3" data-name="Path 91"/>
            </g>
        </g>
    </g>
</svg>
