<svg xmlns="http://www.w3.org/2000/svg" width="135.243" height="138.655" viewBox="0 0 135.243 138.655">
    <defs>
        <style>
            .prefix__cls-1{fill:#272727}.prefix__cls-2{fill:#284766}.prefix__cls-3{fill:#3a90b3}
        </style>
    </defs>
    <g id="prefix__Group_24" data-name="Group 24" transform="translate(-52.861 -520.31)">
        <g id="prefix__Group_20" data-name="Group 20">
            <g id="prefix__Group_18" data-name="Group 18">
                <path id="prefix__Path_42" d="M60.989 637.8a4.46 4.46 0 0 0-2.116-.443c-2.117 0-3.486 1.618-3.486 4.766 0 2.562 1.245 5.1 4.215 5.1a2.664 2.664 0 0 0 1.8-.586 7.116 7.116 0 0 0 1.353-1.761.934.934 0 0 1 .5.336 6.178 6.178 0 0 1-1.423 2.473 8.46 8.46 0 0 1-2.686.427c-3.967 0-6.278-2.027-6.278-5.815a5.278 5.278 0 0 1 2.881-4.856 7.605 7.605 0 0 1 3.61-.765c1.423 0 2.775.267 3.576.3a23.278 23.278 0 0 0-.285 2.9c-.072.091-.6.143-.623.055-.185-1.173-.344-1.742-1.038-2.131z" class="prefix__cls-1" data-name="Path 42"/>
                <path id="prefix__Path_43" d="M66.074 646.493a5.925 5.925 0 0 1-1.511-4.142 5.2 5.2 0 0 1 1.458-3.806 6.012 6.012 0 0 1 4.5-1.868 5.265 5.265 0 0 1 5.585 5.531 5.884 5.884 0 0 1-1.085 3.627 5.785 5.785 0 0 1-4.731 2.278 5.534 5.534 0 0 1-4.216-1.62zm6.349.25a5.458 5.458 0 0 0 1.21-3.929c0-1.833-.516-3.735-1.725-4.714a2.873 2.873 0 0 0-1.9-.677 2.588 2.588 0 0 0-1.44.41c-1.085.73-1.512 2.278-1.512 4a6.355 6.355 0 0 0 1.867 4.84 3.12 3.12 0 0 0 1.956.641 2.356 2.356 0 0 0 1.544-.571z" class="prefix__cls-1" data-name="Path 43"/>
                <path id="prefix__Path_44" d="M77.616 636.944c1.1 0 2.188.054 3.931.054a3.978 3.978 0 0 0 .32 1.1c.818 1.8 2.4 5.211 2.809 6.012.036.036.071.019.107 0 .408-.8 2.241-4.642 2.846-6.064a3.821 3.821 0 0 0 .32-1.05c1.921 0 2.7-.054 3.665-.054.087.036.087.5 0 .569a8.857 8.857 0 0 0-1.087.213c-.426.143-.5.41-.5.837-.036 1.211.107 6.314.2 7.523.035.515.14.87.639 1 .249.052.586.123 1.013.178a.832.832 0 0 1-.053.587c-.533 0-1.263-.053-2.792-.053-.979 0-1.8.053-2.473.053a1.084 1.084 0 0 1 0-.587 5.376 5.376 0 0 0 .943-.2c.32-.109.409-.375.409-.854.036-1.317 0-5.051 0-6.724a.084.084 0 0 0-.089 0c-.693 1.565-3.077 6.705-3.61 8.233a1.883 1.883 0 0 1-.712.019c-.427-1.458-2.1-5.245-3.361-8.288a.135.135 0 0 0-.088.036c-.125 1.458-.321 5.158-.321 6.492 0 .64.107.907.622 1.067a5.675 5.675 0 0 0 1.122.214.682.682 0 0 1-.036.587c-.5 0-1.246-.053-2.33-.053-.783 0-1.584.053-2.134.053a.935.935 0 0 1 0-.587 8.74 8.74 0 0 0 .889-.143c.515-.143.694-.374.8-1.191.179-1.369.552-5.834.623-7.309a.789.789 0 0 0-.463-.836 8.217 8.217 0 0 0-1.264-.268.993.993 0 0 1 .055-.566z" class="prefix__cls-1" data-name="Path 44"/>
                <path id="prefix__Path_45" d="M96.947 643.008a.238.238 0 0 1 .071-.178c.106 0 .3.038.568.038a1.938 1.938 0 0 0 1-.25 2.29 2.29 0 0 0 .943-2.188c-.018-1.637-.837-2.759-2.455-2.759a1.6 1.6 0 0 0-.569.074.441.441 0 0 0-.125.25c-.017.5-.036 1.511-.036 4.037 0 1.279 0 3.2.036 4.16.036.5.125.782.587.908a8.074 8.074 0 0 0 1.12.16.743.743 0 0 1-.035.587c-.657 0-1.849-.053-2.739-.053-.907 0-1.9.053-2.65.053a.788.788 0 0 1 0-.57 8.668 8.668 0 0 0 .925-.16c.445-.107.5-.41.516-.977.036-.642.054-1.921.054-4 0-1.919 0-2.97-.036-3.5-.036-.6-.125-.873-.587-.977a7.972 7.972 0 0 0-.889-.144 1 1 0 0 1 .036-.569c.425 0 1.422.054 2.329.054 1.244-.018 2.046-.036 3.289-.036a4.124 4.124 0 0 1 2.348.623 2.959 2.959 0 0 1 1.175 2.471 3.315 3.315 0 0 1-1.673 2.972 4.334 4.334 0 0 1-2.116.55 4.282 4.282 0 0 1-.8-.071 1.177 1.177 0 0 1-.287-.505z" class="prefix__cls-1" data-name="Path 45"/>
                <path id="prefix__Path_46" d="M102.958 645.766c.959-2.259 2.471-6.386 2.9-7.63a5.947 5.947 0 0 0 .337-1.174c.214.018.5.036.8.036a7.731 7.731 0 0 0 .8-.036c.071.285.195.7.3.995.534 1.494 2.116 6.067 2.738 7.614.552 1.385.658 1.511 1.975 1.689a1.116 1.116 0 0 1-.053.587c-.463 0-1.281-.053-2.455-.053-1.281 0-2.028.034-2.6.053a1.1 1.1 0 0 1 0-.587 4.145 4.145 0 0 0 .907-.214.326.326 0 0 0 .179-.391c-.16-.639-.641-1.955-.907-2.631-.018-.036-.108-.126-.16-.126-.285-.017-.89 0-1.477 0-.836 0-1.191 0-1.423.019-.071 0-.159.088-.195.159a15 15 0 0 0-.765 2.417c0 .269.036.5.516.607a5.776 5.776 0 0 0 .872.16 1.107 1.107 0 0 1-.054.587c-.463 0-1.227-.053-2.259-.053-.764 0-1.441.053-1.974.053a1.1 1.1 0 0 1 0-.587c1.268-.178 1.5-.32 1.998-1.494zm3.289-6.439c-.337.963-.889 2.614-1.174 3.47-.017.071 0 .1.036.123.2.017.6.017 1.156.017.533 0 1.014 0 1.192-.017.018 0 .053-.071.053-.106-.231-.749-.853-2.6-1.192-3.487-.018 0-.053-.017-.071 0z" class="prefix__cls-1" data-name="Path 46"/>
                <path id="prefix__Path_47" d="M112.809 636.944c.569-.017 1.44.054 2.489.054.481 0 .944-.018 1.157-.036a3.388 3.388 0 0 0 .659.978c1.51 1.937 4.445 5.62 5.53 6.882.017 0 .036-.017.053-.017 0-2.275.036-4.909-.071-6.1-.054-.588-.213-.853-.765-1a8.111 8.111 0 0 0-1.12-.194 1.01 1.01 0 0 1 .018-.569c.444 0 1.262.054 2.383.054.871 0 1.708-.054 2.027-.054a1.019 1.019 0 0 1 0 .569c-.284.054-.5.091-.729.158-.5.162-.658.394-.729 1.053-.107 1.511-.124 4.09-.142 6.72 0 .8.018 1.833.035 2.457a11.613 11.613 0 0 0-1.6.017c-1.013-1.425-5.3-6.956-6.438-8.412a.048.048 0 0 0-.088 0c-.036 1.92-.018 5.638.035 6.455.035.746.285 1.013.782 1.121a8.783 8.783 0 0 0 1.05.178.862.862 0 0 1-.035.587c-.57 0-1.37-.053-2.242-.053-.978 0-1.761.053-2.258.053a.942.942 0 0 1 0-.587 5.261 5.261 0 0 0 1-.2c.391-.125.568-.41.622-1.015.107-.942.16-4.178.178-7.166a1.153 1.153 0 0 0-.587-1.051 3.49 3.49 0 0 0-1.227-.3 1.093 1.093 0 0 1 .013-.582z" class="prefix__cls-1" data-name="Path 47"/>
                <path id="prefix__Path_48" d="M124.972 636.944c.57 0 1.477.054 2.384.054.995 0 2.187-.036 2.472-.054a.775.775 0 0 1 .017.569 4.431 4.431 0 0 0-.569.124c-.268.07-.249.267-.142.518.373.8 1.708 3.377 1.992 3.894a.169.169 0 0 0 .125 0 35.205 35.205 0 0 0 1.938-3.754c.089-.338.053-.534-.373-.624a7.787 7.787 0 0 0-.89-.158.844.844 0 0 1 .054-.569c.479 0 1.262.054 2.08.054.907 0 1.4-.054 1.975-.054a.8.8 0 0 1 0 .569 6.923 6.923 0 0 0-.783.158c-.515.162-.783.377-1.28 1.158-.694 1.12-1.832 3.167-2.223 3.968a1.553 1.553 0 0 0-.2.763c0 .8.018 1.565.035 2.473.018.6.09.958.588 1.084.284.052.6.107 1.032.16a.883.883 0 0 1-.054.57c-.551 0-1.742-.053-2.792-.053-1.37 0-1.992.053-2.668.053a.789.789 0 0 1 0-.57 8.1 8.1 0 0 0 1.121-.177c.481-.109.551-.481.551-1 .035-.835.018-1.529.035-2.293a2.434 2.434 0 0 0-.212-.89c-.374-.817-1.388-2.721-2.047-3.894-.64-1.122-.871-1.265-1.386-1.389a4.69 4.69 0 0 0-.8-.14.843.843 0 0 1 .02-.55z" class="prefix__cls-1" data-name="Path 48"/>
                <path id="prefix__Path_49" d="M139.056 636.944c.57-.017 1.442.054 2.49.054.481 0 .944-.018 1.157-.036a3.48 3.48 0 0 0 .657.978c1.513 1.937 4.447 5.62 5.532 6.882.017 0 .035-.017.053-.017 0-2.275.036-4.909-.071-6.1-.054-.588-.213-.853-.764-1a8.2 8.2 0 0 0-1.122-.194 1.047 1.047 0 0 1 .017-.569c.445 0 1.264.054 2.384.054.872 0 1.708-.054 2.028-.054a1.019 1.019 0 0 1 0 .569c-.285.054-.5.091-.729.158-.5.162-.658.394-.73 1.053-.106 1.511-.124 4.09-.142 6.72 0 .8.018 1.833.036 2.457a11.6 11.6 0 0 0-1.6.017c-1.015-1.425-5.3-6.956-6.438-8.412a.049.049 0 0 0-.09 0c-.035 1.92-.018 5.638.036 6.455.035.746.284 1.013.782 1.121a8.818 8.818 0 0 0 1.05.178.845.845 0 0 1-.036.587c-.569 0-1.37-.053-2.241-.053-.978 0-1.76.053-2.259.053a.964.964 0 0 1 0-.587 5.272 5.272 0 0 0 1-.2c.391-.125.569-.41.621-1.015.107-.942.161-4.178.178-7.166a1.154 1.154 0 0 0-.586-1.051 3.49 3.49 0 0 0-1.227-.3 1.113 1.113 0 0 1 .014-.582z" class="prefix__cls-1" data-name="Path 49"/>
                <path id="prefix__Path_50" d="M153.266 645.766c.961-2.259 2.471-6.386 2.9-7.63a6.024 6.024 0 0 0 .338-1.174c.212.018.5.036.8.036a7.762 7.762 0 0 0 .8-.036c.07.285.194.7.3.995.534 1.494 2.117 6.067 2.74 7.614.55 1.385.658 1.511 1.974 1.689a1.107 1.107 0 0 1-.054.587c-.462 0-1.28-.053-2.454-.053-1.281 0-2.028.034-2.6.053a1.113 1.113 0 0 1 0-.587 4.16 4.16 0 0 0 .907-.214.328.328 0 0 0 .18-.391c-.162-.639-.642-1.955-.908-2.631-.019-.036-.107-.126-.162-.126-.283-.017-.888 0-1.475 0-.836 0-1.193 0-1.423.019-.071 0-.16.088-.195.159a15 15 0 0 0-.765 2.417c0 .269.036.5.516.607a5.738 5.738 0 0 0 .871.16 1.106 1.106 0 0 1-.053.587c-.464 0-1.228-.053-2.259-.053-.765 0-1.441.053-1.975.053a1.123 1.123 0 0 1 0-.587c1.268-.178 1.499-.32 1.997-1.494zm3.29-6.439c-.338.963-.889 2.614-1.174 3.47-.019.071 0 .1.035.123.2.017.606.017 1.157.017.532 0 1.013 0 1.192-.017.016 0 .053-.071.053-.106-.232-.749-.854-2.6-1.192-3.487-.018 0-.053-.017-.071 0z" class="prefix__cls-1" data-name="Path 50"/>
                <path id="prefix__Path_51" d="M163.633 636.944c1.1 0 2.188.054 3.93.054a4.016 4.016 0 0 0 .321 1.1c.818 1.8 2.4 5.211 2.81 6.012.035.036.071.019.106 0 .409-.8 2.241-4.642 2.847-6.064a3.892 3.892 0 0 0 .32-1.05c1.921 0 2.7-.054 3.662-.054.089.036.089.5 0 .569a8.784 8.784 0 0 0-1.084.213c-.427.143-.5.41-.5.837-.035 1.211.108 6.314.2 7.523.036.515.143.87.641 1 .249.052.586.123 1.012.178a.826.826 0 0 1-.052.587c-.534 0-1.263-.053-2.792-.053-.979 0-1.8.053-2.471.053a1.065 1.065 0 0 1 0-.587 5.367 5.367 0 0 0 .941-.2c.321-.109.409-.375.409-.854.037-1.317 0-5.051 0-6.724a.082.082 0 0 0-.088 0c-.693 1.565-3.077 6.705-3.611 8.233a1.883 1.883 0 0 1-.712.019c-.426-1.458-2.1-5.245-3.361-8.288a.135.135 0 0 0-.088.036c-.126 1.458-.321 5.158-.321 6.492 0 .64.108.907.623 1.067a5.68 5.68 0 0 0 1.12.214.682.682 0 0 1-.036.587c-.5 0-1.245-.053-2.329-.053-.783 0-1.583.053-2.134.053a.949.949 0 0 1 0-.587 8.764 8.764 0 0 0 .89-.143c.515-.143.692-.374.8-1.191.178-1.369.551-5.834.621-7.309a.785.785 0 0 0-.462-.836 8.183 8.183 0 0 0-1.262-.268.994.994 0 0 1 .05-.566z" class="prefix__cls-1" data-name="Path 51"/>
                <path id="prefix__Path_52" d="M178.766 636.944c.623 0 1.673.054 2.579.054h3.555a20.543 20.543 0 0 0 2.188-.09.078.078 0 0 1 .071.072 20.411 20.411 0 0 0-.284 2.6 1 1 0 0 1-.642.054 4.2 4.2 0 0 0-.282-1.246.818.818 0 0 0-.767-.531c-.426-.036-2.311-.036-2.559 0-.108.017-.2.231-.2.32-.017 1.1-.017 2.492 0 3.557 0 .069.053.143.107.143.551 0 1.832.017 2.419-.038.372-.017.516-.2.622-.586a5.721 5.721 0 0 0 .16-.658 1.093 1.093 0 0 1 .677.036c-.036.409-.107 1.12-.107 1.707 0 .551.018 1.262.035 1.727a1.037 1.037 0 0 1-.658.016c-.124-.5-.107-.5-.179-.728a.651.651 0 0 0-.6-.5c-.392-.035-1.8-.035-2.365-.035-.054 0-.107.106-.107.143-.017.994 0 2.418 0 3.271a.612.612 0 0 0 .392.622 17.679 17.679 0 0 0 2.346.124c.8-.018 1.033-.107 1.4-.549a7.226 7.226 0 0 0 .926-1.62 1.1 1.1 0 0 1 .605.23 15.745 15.745 0 0 1-.783 2.544c-.089.179-.2.284-.995.284-1.5 0-3.06-.069-4.946-.069-1.013 0-2.169.053-3.058.053a1.1 1.1 0 0 1 0-.587 9.421 9.421 0 0 0 1.316-.2c.355-.091.516-.3.534-.908.053-.782.053-2.259.053-4.268 0-1.425-.018-2.882-.053-3.415-.036-.553-.143-.693-.5-.8a6.284 6.284 0 0 0-.943-.158.779.779 0 0 1 .043-.571z" class="prefix__cls-1" data-name="Path 52"/>
            </g>
            <g id="prefix__Group_19" data-name="Group 19">
                <path id="prefix__Path_53" d="M85.134 651.52c.285 0 1.138.033 1.566.033.889 0 1.529-.021 2.157-.021 1.435 0 2.2.759 2.2 1.813a1.958 1.958 0 0 1-1.374 1.827c-.023.01-.023.069-.013.092a17.313 17.313 0 0 0 1.9 2.587 1.509 1.509 0 0 0 1.185.556.778.778 0 0 1-.083.393 5.84 5.84 0 0 1-2.229-.226 1.732 1.732 0 0 1-.58-.487 23.8 23.8 0 0 1-1.483-2.253.393.393 0 0 0-.332-.213h-.474c-.012 0-.047.048-.047.071 0 .711.011 1.566.023 2.029.024.366.1.5.356.568a4.659 4.659 0 0 0 .64.109c.059.034.035.366-.024.39-.248 0-.817-.036-1.707-.036-.913 0-1.434.036-1.684.036-.047-.049-.071-.344 0-.381.225-.035.416-.058.557-.094.261-.059.344-.213.368-.6.024-.343.036-1.945.036-2.654 0-1.163 0-2.041-.024-2.514-.012-.322-.107-.476-.356-.535a5.524 5.524 0 0 0-.6-.107c-.061-.076-.036-.36.022-.383zm2.5.532a.281.281 0 0 0-.083.177c-.023.311-.023 1.426-.023 2.775a.077.077 0 0 0 .071.083 3.625 3.625 0 0 0 1.363-.118 1.248 1.248 0 0 0 .618-1.268 1.519 1.519 0 0 0-1.591-1.709.981.981 0 0 0-.353.06z" class="prefix__cls-1" data-name="Path 53"/>
                <path id="prefix__Path_54" d="M92.793 651.52c.415 0 1.114.033 1.719.033h2.371a13.427 13.427 0 0 0 1.459-.059.053.053 0 0 1 .047.049 13.618 13.618 0 0 0-.19 1.731.667.667 0 0 1-.426.036 2.761 2.761 0 0 0-.19-.831.538.538 0 0 0-.509-.353c-.285-.025-1.542-.025-1.708 0-.071.009-.131.152-.131.212-.011.735-.011 1.66 0 2.371 0 .048.036.1.072.1.368 0 1.22.011 1.612-.025.249-.013.344-.13.415-.39a3.7 3.7 0 0 0 .107-.441.761.761 0 0 1 .451.025c-.025.275-.071.748-.071 1.139 0 .367.011.842.023 1.151a.7.7 0 0 1-.438.01c-.083-.332-.072-.332-.119-.484a.433.433 0 0 0-.4-.333c-.26-.024-1.2-.024-1.576-.024-.036 0-.072.071-.072.093-.011.665 0 1.613 0 2.183a.41.41 0 0 0 .261.415 11.619 11.619 0 0 0 1.566.083c.532-.01.687-.07.936-.367a4.741 4.741 0 0 0 .616-1.079.727.727 0 0 1 .4.154 10.4 10.4 0 0 1-.522 1.7c-.059.119-.131.191-.664.191-1 0-2.04-.048-3.295-.048-.678 0-1.448.036-2.04.036a.717.717 0 0 1 0-.39 5.975 5.975 0 0 0 .877-.132c.237-.06.343-.2.355-.606.036-.522.036-1.507.036-2.845 0-.949-.012-1.92-.036-2.275s-.094-.464-.332-.535a3.968 3.968 0 0 0-.627-.107.518.518 0 0 1 .023-.388z" class="prefix__cls-1" data-name="Path 54"/>
                <path id="prefix__Path_55" d="M100.642 657.4c.639-1.5 1.648-4.256 1.932-5.085a4.125 4.125 0 0 0 .225-.782c.142.011.333.021.534.021.249 0 .415-.01.533-.021.048.188.131.46.2.663.355 1 1.41 4.041 1.826 5.074.368.927.438 1.008 1.316 1.129a.729.729 0 0 1-.036.39c-.308 0-.854-.036-1.636-.036-.853 0-1.353.025-1.731.036a.727.727 0 0 1 0-.39 2.708 2.708 0 0 0 .605-.144.218.218 0 0 0 .119-.261c-.108-.428-.429-1.3-.6-1.757-.012-.021-.072-.083-.108-.083-.189-.009-.592 0-.984 0-.556 0-.794 0-.948.014-.047 0-.106.062-.13.106a9.887 9.887 0 0 0-.51 1.613c0 .179.024.333.343.4a3.892 3.892 0 0 0 .581.109.739.739 0 0 1-.035.39c-.308 0-.818-.036-1.506-.036-.509 0-.96.036-1.316.036a.758.758 0 0 1 0-.39c.839-.119.993-.213 1.326-.996zm2.192-4.293c-.224.642-.592 1.745-.781 2.316-.013.046 0 .069.024.081.129.012.4.012.769.012s.676 0 .795-.012c.011 0 .036-.047.036-.071-.155-.5-.571-1.731-.795-2.326-.012-.001-.036-.007-.048-.001z" class="prefix__cls-1" data-name="Path 55"/>
                <path id="prefix__Path_56" d="M107.374 651.52c.44 0 .783.033 1.7.033.83 0 1.28-.033 1.659-.033a.524.524 0 0 1 0 .378 5.45 5.45 0 0 0-.581.107c-.272.083-.308.213-.32.5s-.023 1.126-.023 2.3c-.013 1.279.011 2.584.035 2.964a.379.379 0 0 0 .225.355 9.708 9.708 0 0 0 1.66.073.832.832 0 0 0 .688-.4 8.4 8.4 0 0 0 .759-1.389.614.614 0 0 1 .415.157 9.981 9.981 0 0 1-.7 2.1c-.037.1-.166.154-.629.154-.89 0-2.419-.058-3.249-.058-.794 0-1.4.036-1.767.036a.568.568 0 0 1 0-.39 3.764 3.764 0 0 0 .724-.109c.236-.07.308-.2.332-.486s.047-1.53.047-2.843c0-1.331.012-1.994-.024-2.4-.012-.319-.059-.485-.355-.556a5.4 5.4 0 0 0-.629-.107.464.464 0 0 1 .033-.386z" class="prefix__cls-1" data-name="Path 56"/>
                <path id="prefix__Path_57" d="M116.219 651.52c.414 0 1.115.033 1.72.033h2.371a13.441 13.441 0 0 0 1.458-.059.053.053 0 0 1 .047.049 13.64 13.64 0 0 0-.189 1.731.674.674 0 0 1-.428.036 2.767 2.767 0 0 0-.189-.831.538.538 0 0 0-.51-.353c-.284-.025-1.541-.025-1.707 0-.071.009-.131.152-.131.212-.012.735-.012 1.66 0 2.371 0 .048.036.1.071.1.368 0 1.223.011 1.613-.025.249-.013.344-.13.414-.39a3.7 3.7 0 0 0 .108-.441.756.756 0 0 1 .45.025c-.024.275-.071.748-.071 1.139 0 .367.012.842.024 1.151a.7.7 0 0 1-.439.01c-.083-.332-.072-.332-.118-.484a.433.433 0 0 0-.4-.333c-.262-.024-1.2-.024-1.578-.024-.035 0-.071.071-.071.093-.012.665 0 1.613 0 2.183a.41.41 0 0 0 .261.415 11.645 11.645 0 0 0 1.565.083c.535-.01.687-.07.937-.367a4.856 4.856 0 0 0 .617-1.079.732.732 0 0 1 .4.154 10.5 10.5 0 0 1-.522 1.7c-.06.119-.131.191-.664.191-1 0-2.039-.048-3.3-.048-.676 0-1.447.036-2.04.036a.737.737 0 0 1 0-.39 5.908 5.908 0 0 0 .877-.132c.238-.06.345-.2.356-.606.036-.522.036-1.507.036-2.845 0-.949-.011-1.92-.036-2.275s-.094-.464-.332-.535a3.988 3.988 0 0 0-.627-.107.508.508 0 0 1 .027-.388z" class="prefix__cls-1" data-name="Path 57"/>
                <path id="prefix__Path_58" d="M124.494 658.172a1.937 1.937 0 0 0 1.115.319 1 1 0 0 0 1.09-1.032c0-.627-.32-.982-1.41-1.648-1.02-.617-1.827-1.186-1.827-2.371a2.187 2.187 0 0 1 2.455-2.1 14.874 14.874 0 0 1 1.933.2 10.878 10.878 0 0 0-.2 1.72.5.5 0 0 1-.389.011c-.108-.713-.239-1.056-.523-1.255a1.48 1.48 0 0 0-.925-.264 1.05 1.05 0 0 0-1.09 1.079 1.386 1.386 0 0 0 .759 1.21c.5.32.9.523 1.376.818a2.093 2.093 0 0 1 1.219 1.865c0 1.219-.994 2.238-2.773 2.238a4.326 4.326 0 0 1-1.791-.378 8.772 8.772 0 0 1-.368-1.86.513.513 0 0 1 .392-.121 2.851 2.851 0 0 0 .957 1.569z" class="prefix__cls-1" data-name="Path 58"/>
                <path id="prefix__Path_59" d="M133.908 658.788c-.428 0-1.079-.036-1.861-.036-1.008 0-1.626.036-1.991.036a.464.464 0 0 1 0-.381 5.965 5.965 0 0 0 .794-.118c.331-.07.414-.237.438-.769.047-1.1.035-3.417.035-5.3 0-.023-.035-.092-.059-.092-.213-.013-.949-.013-1.268 0a.606.606 0 0 0-.558.389 7.2 7.2 0 0 0-.44 1.043c-.046.049-.391-.024-.413-.1.094-.487.2-1.472.237-1.993 0-.024.082-.083.117-.071a2.868 2.868 0 0 0 1.045.164h4.255a3.841 3.841 0 0 0 1.281-.153c.037 0 .084.06.094.082a12.207 12.207 0 0 0-.283 2.052.654.654 0 0 1-.427.012 4.342 4.342 0 0 0-.226-1.056.465.465 0 0 0-.451-.364c-.4-.025-1.172-.013-1.386 0a.1.1 0 0 0-.048.092c0 1.7-.01 4.779.024 5.467.024.3.083.5.332.581a4.01 4.01 0 0 0 .794.141.478.478 0 0 1-.035.374z" class="prefix__cls-1" data-name="Path 59"/>
                <path id="prefix__Path_60" d="M136.1 657.4c.639-1.5 1.647-4.256 1.933-5.085a4.125 4.125 0 0 0 .225-.782c.142.011.332.021.533.021.25 0 .415-.01.534-.021.047.188.13.46.2.663.355 1 1.412 4.041 1.825 5.074.369.927.44 1.008 1.317 1.129a.729.729 0 0 1-.036.39c-.307 0-.853-.036-1.635-.036-.853 0-1.352.025-1.731.036a.727.727 0 0 1 0-.39 2.721 2.721 0 0 0 .6-.144.217.217 0 0 0 .117-.261c-.107-.428-.426-1.3-.6-1.757-.012-.021-.071-.083-.106-.083-.19-.009-.594 0-.984 0-.557 0-.794 0-.948.014-.049 0-.107.062-.132.106a9.961 9.961 0 0 0-.509 1.613c0 .179.023.333.344.4a3.815 3.815 0 0 0 .579.109.739.739 0 0 1-.035.39c-.306 0-.818-.036-1.5-.036-.51 0-.961.036-1.316.036a.737.737 0 0 1 0-.39c.839-.119.994-.213 1.325-.996zm2.194-4.293c-.226.642-.593 1.745-.783 2.316-.011.046 0 .069.024.081.129.012.4.012.771.012s.674 0 .794-.012c.01 0 .035-.047.035-.071-.155-.5-.569-1.731-.794-2.326-.011-.001-.034-.007-.046-.001z" class="prefix__cls-1" data-name="Path 60"/>
                <path id="prefix__Path_61" d="M147.245 658.788c-.426 0-1.078-.036-1.861-.036-1.007 0-1.624.036-1.992.036a.476.476 0 0 1 0-.381 5.939 5.939 0 0 0 .794-.118c.333-.07.415-.237.439-.769.047-1.1.037-3.417.037-5.3 0-.023-.037-.092-.061-.092-.213-.013-.949-.013-1.268 0a.609.609 0 0 0-.558.389 7.317 7.317 0 0 0-.439 1.043c-.045.049-.391-.024-.414-.1.1-.487.2-1.472.237-1.993a.138.138 0 0 1 .119-.071 2.856 2.856 0 0 0 1.042.164h4.258a3.852 3.852 0 0 0 1.281-.153c.035 0 .083.06.093.082a12 12 0 0 0-.283 2.052.654.654 0 0 1-.427.012 4.347 4.347 0 0 0-.225-1.056.467.467 0 0 0-.451-.364c-.4-.025-1.174-.013-1.388 0a.1.1 0 0 0-.047.092c0 1.7-.012 4.779.024 5.467.023.3.082.5.332.581a3.994 3.994 0 0 0 .795.141.475.475 0 0 1-.037.374z" class="prefix__cls-1" data-name="Path 61"/>
                <path id="prefix__Path_62" d="M149.664 651.52c.415 0 1.114.033 1.719.033h2.371a13.449 13.449 0 0 0 1.459-.059.052.052 0 0 1 .047.049 13.617 13.617 0 0 0-.19 1.731.668.668 0 0 1-.426.036 2.786 2.786 0 0 0-.191-.831.537.537 0 0 0-.51-.353c-.285-.025-1.541-.025-1.707 0-.07.009-.13.152-.13.212-.012.735-.012 1.66 0 2.371 0 .048.036.1.071.1.368 0 1.221.011 1.613-.025.248-.013.343-.13.415-.39a4.385 4.385 0 0 0 .108-.441.755.755 0 0 1 .449.025c-.024.275-.072.748-.072 1.139 0 .367.012.842.024 1.151a.7.7 0 0 1-.438.01c-.083-.332-.071-.332-.119-.484a.431.431 0 0 0-.4-.333c-.261-.024-1.2-.024-1.577-.024-.035 0-.071.071-.071.093-.012.665 0 1.613 0 2.183a.411.411 0 0 0 .26.415 11.658 11.658 0 0 0 1.567.083c.531-.01.687-.07.936-.367a4.779 4.779 0 0 0 .616-1.079.729.729 0 0 1 .4.154 10.389 10.389 0 0 1-.521 1.7c-.06.119-.13.191-.665.191-.995 0-2.038-.048-3.295-.048-.677 0-1.448.036-2.039.036a.717.717 0 0 1 0-.39 5.994 5.994 0 0 0 .878-.132c.235-.06.343-.2.354-.606.036-.522.036-1.507.036-2.845 0-.949-.012-1.92-.036-2.275s-.1-.464-.331-.535a4.011 4.011 0 0 0-.63-.107.513.513 0 0 1 .025-.388z" class="prefix__cls-1" data-name="Path 62"/>
            </g>
        </g>
        <g id="prefix__Group_23" data-name="Group 23">
            <path id="prefix__Rectangle_47" d="M0 0H11.128V102.083H0z" class="prefix__cls-2" data-name="Rectangle 47" transform="translate(114.919 520.31)"/>
            <g id="prefix__Group_21" data-name="Group 21">
                <path id="prefix__Path_63" d="M151.929 562.66v59.734h11.128V574.2a134.945 134.945 0 0 1-11.128-11.54z" class="prefix__cls-2" data-name="Path 63"/>
                <path id="prefix__Path_64" d="M134.512 536.5v85.89h11.128v-67.683a130.338 130.338 0 0 1-11.128-18.207z" class="prefix__cls-3" data-name="Path 64"/>
            </g>
            <g id="prefix__Group_22" data-name="Group 22">
                <path id="prefix__Path_65" d="M89.036 562.66v59.734H77.908V574.2a135.253 135.253 0 0 0 11.128-11.54z" class="prefix__cls-2" data-name="Path 65"/>
                <path id="prefix__Path_66" d="M106.453 536.5v85.89H95.325v-67.683a130.242 130.242 0 0 0 11.128-18.207z" class="prefix__cls-3" data-name="Path 66"/>
            </g>
            <path id="prefix__Rectangle_48" d="M0 0H85.148V2.547H0z" class="prefix__cls-3" data-name="Rectangle 48" transform="translate(77.738 624.495)"/>
            <path id="prefix__Rectangle_49" d="M0 0H101.878V2.546H0z" class="prefix__cls-2" data-name="Rectangle 49" transform="translate(69.543 628.925)"/>
        </g>
    </g>
</svg>
