<svg xmlns="http://www.w3.org/2000/svg" width="20" height="20" viewBox="0 0 20 20">
    <path d="M10 0a10 10 0 1 0 10 10A10 10 0 0 0 10 0zm.212 15.822a5.983 5.983 0 0 1-2.86-.728l-3.173.832.849-3.1a5.985 5.985 0 1 1 5.186 3zm0 0" data-name="Path 39"/>
    <path d="M10.21 5.15a4.885 4.885 0 0 0-5.06 4.675 4.41 4.41 0 0 0 .773 2.488l.12.177-.511 1.725 1.914-.464.185.1a5.365 5.365 0 0 0 2.574.652 4.885 4.885 0 0 0 5.058-4.676 4.477 4.477 0 0 0-1.48-3.308A5.238 5.238 0 0 0 10.21 5.15zm2.975 6.686a1.57 1.57 0 0 1-1.026.668 2.25 2.25 0 0 1-.958-.056c-.221-.065-.5-.151-.867-.3a6.6 6.6 0 0 1-2.6-2.122 2.632 2.632 0 0 1-.621-1.454 1.53 1.53 0 0 1 .532-1.173.58.58 0 0 1 .405-.176h.291c.091 0 .219-.033.342.241s.431.973.469 1.044a.242.242 0 0 1 .013.246 4.033 4.033 0 0 1-.38.481c-.067.077-.155.146-.067.287a4.3 4.3 0 0 0 .846.974 4.24 4.24 0 0 0 1.223.7c.152.07.241.059.329-.035s.38-.41.481-.551.2-.117.342-.07.887.387 1.039.457.253.106.291.164a1.091 1.091 0 0 1-.089.674zm0 0" data-name="Path 40"/>
</svg>
