<svg xmlns="http://www.w3.org/2000/svg" xmlns:xlink="http://www.w3.org/1999/xlink" width="122" height="94.719" viewBox="0 0 122 94.719">
    <defs>
        <linearGradient id="prefix__linear-gradient" x1="-8.404" x2="8.266" y1=".5" y2=".5" gradientUnits="objectBoundingBox">
            <stop offset="0" stop-color="#877363"/>
            <stop offset="1" stop-color="#b8a789"/>
        </linearGradient>
        <linearGradient id="prefix__linear-gradient-2" x1="-560.97" x2="553.184" y1=".5" y2=".5" xlink:href="#prefix__linear-gradient"/>
        <style>
            .prefix__cls-1{fill:#8c6a3e}.prefix__cls-2{fill:#c6974c}.prefix__cls-4{fill:#daaa60}
        </style>
    </defs>
    <g id="prefix__Group_7" data-name="Group 7" transform="translate(-193.527 -102.626)">
        <g id="prefix__swcBeW_tif" transform="translate(193.527 178.895)">
            <g id="prefix__Group_1" data-name="Group 1">
                <path id="prefix__Path_1" d="M320.757 265.11a7.055 7.055 0 0 1-4.347-1.305 6.92 6.92 0 0 1-2.838-4.782 7.867 7.867 0 0 1 .537-4.459 6.761 6.761 0 0 1 5.5-4.138 7.163 7.163 0 0 1 4.36.673 6.882 6.882 0 0 1 3.73 4.935 7.8 7.8 0 0 1-.453 4.872 6.783 6.783 0 0 1-5.318 4.11 8.624 8.624 0 0 1-1.171.094zm5.1-7.36a8.534 8.534 0 0 0-.089-1.162 5.065 5.065 0 0 0-5.053-4.41 4.887 4.887 0 0 0-4.64 2.842 6.275 6.275 0 0 0-.519 3.73 5.066 5.066 0 0 0 4.69 4.524 4.952 4.952 0 0 0 4.406-1.839 5.655 5.655 0 0 0 1.201-3.685z" class="prefix__cls-1" data-name="Path 1" transform="translate(-248.568 -246.681)"/>
                <path id="prefix__Path_2" d="M247.234 257.948v-6.849c0-.31-.035-.271.279-.27 1.558 0 3.117-.018 4.675.021a7.955 7.955 0 0 1 3.914 1.05 5.982 5.982 0 0 1 2.917 4.115 8.835 8.835 0 0 1-.212 4.645 6.077 6.077 0 0 1-4.169 3.991 9.158 9.158 0 0 1-2.715.421c-1.507.017-3.015 0-4.522.012-.186 0-.169-.091-.169-.211q.002-3.462.002-6.925zm1.977-.006v5.108c0 .152.029.211.2.208.7-.01 1.392-.005 2.089 0a7.946 7.946 0 0 0 2.087-.243 4.473 4.473 0 0 0 3.351-3.076 6.611 6.611 0 0 0 .1-3.607 4.411 4.411 0 0 0-2.668-3.143 6.649 6.649 0 0 0-2.575-.507c-.792-.011-1.584 0-2.377-.009-.162 0-.2.045-.2.2-.005 1.689-.007 3.379-.007 5.069z" class="prefix__cls-1" data-name="Path 2" transform="translate(-218.172 -246.903)"/>
                <path id="prefix__Path_3" d="M358.808 260.338v2.736a.366.366 0 0 1-.141.308 6.9 6.9 0 0 1-3.614 1.628 8.277 8.277 0 0 1-3.9-.254 6.813 6.813 0 0 1-4.753-5.3 7.664 7.664 0 0 1 .565-5.152 6.681 6.681 0 0 1 5.721-3.91 7.189 7.189 0 0 1 4.332.912 7.079 7.079 0 0 1 1.334 1.023c.089.085.091.134.008.226-.351.388-.7.78-1.036 1.18-.1.119-.156.114-.259 0a5.214 5.214 0 0 0-6.155-.964 5.055 5.055 0 0 0-2.558 3.63 6.142 6.142 0 0 0 .427 3.962 4.947 4.947 0 0 0 4.188 2.9 5.515 5.515 0 0 0 3.661-.832.381.381 0 0 0 .2-.366c-.01-.912 0-1.824-.005-2.736 0-.281.028-.239-.248-.239h-3.182c-.161 0-.2-.042-.2-.2.011-.459.008-.918 0-1.378 0-.115.031-.152.15-.151h5.309c.134 0 .155.048.155.165-.001.937.001 1.874.001 2.812z" class="prefix__cls-1" data-name="Path 3" transform="translate(-263.585 -246.689)"/>
                <path id="prefix__Path_4" d="M291.48 261.076a.373.373 0 0 0 .147-.181q2.952-4.942 5.9-9.888a.328.328 0 0 1 .33-.188c.6.01 1.2 0 1.8.005.059 0 .141-.035.172.033.023.051-.041.1-.07.148q-2.024 3.291-4.053 6.579a.275.275 0 0 0 .007.352q2.337 3.478 4.664 6.962c.031.047.061.1.092.144-.051.055-.112.03-.165.03h-2.012a.3.3 0 0 1-.292-.157q-1.685-2.567-3.379-5.128l-.129-.193c-.088.028-.105.11-.143.17q-1.6 2.562-3.2 5.128a.314.314 0 0 1-.314.181c-.37-.014-.742-.017-1.111 0-.195.009-.231-.058-.226-.235.012-.471 0-.944 0-1.416v-12.343c0-.3-.032-.261.269-.262.5 0 1 .008 1.5-.005.183 0 .216.057.216.225q-.007 4.889 0 9.778z" class="prefix__cls-1" data-name="Path 4" transform="translate(-237.567 -246.898)"/>
                <path id="prefix__Path_5" d="M409.734 255.866v4.114a6.141 6.141 0 0 1-.47 2.538 4.391 4.391 0 0 1-2.937 2.542 7.261 7.261 0 0 1-4.158-.026 4.463 4.463 0 0 1-3.2-3.588 7 7 0 0 1-.133-1.483v-8.915c0-.173.041-.229.221-.225q.766.019 1.533 0c.18 0 .235.036.234.227q-.011 4.4 0 8.8a4.876 4.876 0 0 0 .187 1.436 3.016 3.016 0 0 0 2.655 2.185 4.736 4.736 0 0 0 1.75-.095 3 3 0 0 0 2.266-2.521 5.231 5.231 0 0 0 .081-1.028v-8.782c0-.173.041-.226.219-.222.523.012 1.048.01 1.571 0 .159 0 .2.043.2.2-.022 1.616-.019 3.229-.019 4.843z" class="prefix__cls-1" data-name="Path 5" transform="translate(-287.737 -246.9)"/>
                <path id="prefix__Path_6" d="M198.843 265.1a8.137 8.137 0 0 1-4.466-1.164 9.205 9.205 0 0 1-.76-.549c-.1-.077-.121-.131-.043-.245q.475-.683.929-1.381c.083-.128.124-.1.221-.018a5.952 5.952 0 0 0 5.026 1.458 3.155 3.155 0 0 0 1.181-.475 2.022 2.022 0 0 0-.085-3.41 7.836 7.836 0 0 0-2.162-.746 12.416 12.416 0 0 1-2.765-.877 3.112 3.112 0 0 1-1.752-1.8 3.991 3.991 0 0 1 2.758-5.316 7.27 7.27 0 0 1 4.281.164 7.943 7.943 0 0 1 2.036 1c.136.091.135.156.059.285q-.392.667-.761 1.348c-.071.131-.116.156-.246.057a6.1 6.1 0 0 0-2.642-1.2 4.294 4.294 0 0 0-2.467.174 2.074 2.074 0 0 0-1.15 2.682 1.663 1.663 0 0 0 .851.916 7.522 7.522 0 0 0 1.868.608 13.591 13.591 0 0 1 2.884.882 4.572 4.572 0 0 1 1.114.7 3.024 3.024 0 0 1 1.022 2.055 4.063 4.063 0 0 1-1.166 3.48 4.714 4.714 0 0 1-2.406 1.222 7.431 7.431 0 0 1-1.359.15z" class="prefix__cls-1" data-name="Path 6" transform="translate(-193.527 -246.675)"/>
                <path id="prefix__Path_7" d="M229.9 264.873h-2c-.125 0-.143-.08-.179-.16-.381-.863-.764-1.724-1.138-2.589a.231.231 0 0 0-.252-.167q-3.028.007-6.057 0a.234.234 0 0 0-.252.167c-.375.865-.759 1.726-1.135 2.591a.218.218 0 0 1-.238.159c-.639-.009-1.278 0-1.916 0-.023-.078.025-.129.05-.184q3.205-7.087 6.414-14.172c.024-.054.025-.143.106-.142s.081.089.1.143q3.213 7.093 6.423 14.19c.026.043.044.091.074.164zm-4.132-4.639l-2.465-5.5-2.464 5.5z" class="prefix__cls-1" data-name="Path 7" transform="translate(-204.174 -246.695)"/>
                <path id="prefix__Path_8" d="M377.71 257.946v-6.888c0-.179.036-.242.228-.236.511.014 1.022.011 1.533 0 .169 0 .225.035.225.217-.007 1.869 0 3.737 0 5.606v6.43c0 .186.035.245.236.244 2.121-.008 4.243 0 6.364-.009.169 0 .216.042.212.211-.012.459-.01.918 0 1.377 0 .141-.034.182-.181.182q-4.207-.007-8.415 0c-.173 0-.192-.063-.192-.209q.006-2.87 0-5.74z" class="prefix__cls-1" data-name="Path 8" transform="translate(-278.045 -246.9)"/>
                <path id="prefix__Path_9" d="M276.8 257.938v-6.886c0-.189.053-.234.235-.229.517.012 1.035.011 1.552 0 .163 0 .2.049.2.2q-.007 3.549 0 7.1v6.734c0 .19-.052.23-.233.226-.517-.013-1.035-.011-1.552 0-.16 0-.2-.041-.2-.2l-.002-6.945z" class="prefix__cls-1" data-name="Path 9" transform="translate(-231.737 -246.901)"/>
                <path id="prefix__Path_10" d="M354.556 243.578c.16 0 .32.008.479 0 .138-.009.192.024.212.179a1.489 1.489 0 0 0 1.16 1.293 1.6 1.6 0 0 0 1.719-.6 1.392 1.392 0 0 0 .264-.727c.008-.115.047-.15.163-.148.357.008.715.008 1.073 0 .133 0 .16.045.153.168a2.819 2.819 0 0 1-2.67 2.661 3 3 0 0 1-2.74-1.181 2.682 2.682 0 0 1-.516-1.5c-.008-.12.033-.156.15-.152.183.013.368.007.553.007z" class="prefix__cls-1" data-name="Path 10" transform="translate(-267.098 -243.575)"/>
            </g>
        </g>
        <g id="prefix__Group_5" data-name="Group 5" transform="translate(228.174 102.626)">
            <g id="prefix__Group_2" data-name="Group 2">
                <path id="prefix__Path_11" d="M283.89 102.626l-26.334 15.091L284.3 133.25l2.747-1.577L266.9 119.97l14.311-8.21a5.367 5.367 0 0 1 5.365.014l17.105 9.931 6.584-3.78z" class="prefix__cls-2" data-name="Path 11" transform="translate(-257.556 -102.626)"/>
                <path id="prefix__Path_12" d="M294.213 132.219l14.924 8.669 6.559-3.766-12.268-7.105a5.363 5.363 0 0 0-5.358-.011z" class="prefix__cls-2" data-name="Path 12" transform="translate(-274.377 -114.864)"/>
            </g>
            <g id="prefix__Group_3" data-name="Group 3" transform="translate(0 15.091)">
                <path id="prefix__Path_13" d="M307.007 167.663l3.137 1.822-3.139-1.823z" data-name="Path 13" transform="translate(-280.248 -147.561)"/>
                <path id="prefix__Path_14" d="M283.931 150.393v-4.569l.022-.012-26.4-15.3a7.851 7.851 0 0 0 3.9 6.783l19.686 11.473.018-.01-.015.014 3.171 1.841z" class="prefix__cls-4" data-name="Path 14" transform="translate(-257.556 -130.515)"/>
                <path id="prefix__Path_15" d="M306.3 163.366l.383.222v-4.568l.012-.007-.23-.146-.143-.083-.022.013z" data-name="Path 15" transform="translate(-279.924 -143.488)"/>
                <path id="prefix__Path_16" d="M332.83 134.68v5.969l-5.194-3.015-6.557 3.766 18.333 10.69V130.9z" class="prefix__cls-1" data-name="Path 16" transform="translate(-286.706 -130.692)"/>
            </g>
            <g id="prefix__Group_4" data-name="Group 4" transform="translate(.375 25.908)">
                <path id="prefix__Path_17" d="M308.987 184.489l3.851-2.209-6.541-3.807v6.727a5.36 5.36 0 0 0 2.69-.711z" class="prefix__cls-1" data-name="Path 17" transform="translate(-280.298 -163.339)"/>
                <path id="prefix__Path_18" d="M309.039 155.9l-2.719 1.56-.022.012v4.569l3.522 2.045 13.842 8.039-14.7 8.253a5.352 5.352 0 0 1-2.663.686v8.149l22.413-12.813a7.776 7.776 0 0 0 3.917-6.75z" class="prefix__cls-1" data-name="Path 18" transform="translate(-280.298 -152.982)"/>
                <path id="prefix__Path_19" d="M281.6 177.867l-17.128-9.932v-6.256l17.1 9.959a5.358 5.358 0 0 0 2.677.728v-6.727l-26-15.133v21.133l25.978 15.087.021.012v-8.148a5.355 5.355 0 0 1-2.648-.723z" class="prefix__cls-4" data-name="Path 19" transform="translate(-258.249 -150.506)"/>
            </g>
        </g>
        <g id="prefix__t1SYoK_tif" transform="translate(246.966 171.633)">
            <g id="prefix__Group_6" data-name="Group 6">
                <path id="prefix__Path_20" d="M316.449 230.155a4.3 4.3 0 0 1 .623.121 3.39 3.39 0 0 1 .935.445c.051.035.052.064.024.114-.106.183-.211.367-.312.554-.034.063-.062.064-.117.022a2.426 2.426 0 0 0-1.1-.484 1.741 1.741 0 0 0-.984.084.84.84 0 0 0-.364 1.209.807.807 0 0 0 .362.27 4.958 4.958 0 0 0 .88.248 4.144 4.144 0 0 1 1.143.409 1.283 1.283 0 0 1 .682 1.085 1.659 1.659 0 0 1-1.353 1.821 3.19 3.19 0 0 1-2.775-.6c-.053-.041-.057-.072-.019-.126.124-.178.245-.359.363-.541.036-.056.062-.056.112-.012a2.435 2.435 0 0 0 1.771.616 1.393 1.393 0 0 0 .764-.248.81.81 0 0 0-.062-1.337 3.194 3.194 0 0 0-.9-.31 4.823 4.823 0 0 1-1.12-.36 1.352 1.352 0 0 1-.625-.559 1.523 1.523 0 0 1-.166-.771 1.62 1.62 0 0 1 .139-.67 1.657 1.657 0 0 1 1.174-.916c.107-.027.218-.041.327-.06z" class="prefix__cls-1" data-name="Path 20" transform="translate(-302.274 -230.155)"/>
                <path id="prefix__Path_21" d="M296.781 233.216V236c0 .114 0 .114-.116.114h-.6c-.1 0-.1 0-.1-.1v-2.363c0-.111 0-.111-.111-.111h-2.625c-.117 0-.117 0-.117.114v2.34c0 .122 0 .122-.125.122h-.6c-.1 0-.1 0-.1-.1v-5.564c0-.121 0-.121.119-.121h.6c.1 0 .109.005.109.11v2.216c0 .124 0 .124.123.124h2.617c.113 0 .113 0 .113-.109v-2.232c0-.108 0-.109.108-.109h.606c.1 0 .1 0 .1.1z" class="prefix__cls-1" data-name="Path 21" transform="translate(-292.285 -230.232)"/>
                <path id="prefix__Path_22" d="M304.964 233.224v-2.781c0-.12 0-.12.121-.12h3.246c.118 0 .118 0 .118.115v.535c0 .111 0 .113-.112.113h-2.415c-.132 0-.132 0-.132.132v1.573c0 .1 0 .1.1.1h2.035c.113 0 .114 0 .114.11v.527c0 .075-.021.1-.1.1h-2.026c-.124 0-.124 0-.124.121v2.239c0 .12 0 .12-.119.12h-.583c-.124 0-.124 0-.124-.122l.001-2.762z" class="prefix__cls-1" data-name="Path 22" transform="translate(-298.103 -230.232)"/>
            </g>
        </g>
    </g>
</svg>
