<svg xmlns="http://www.w3.org/2000/svg" width="16" height="16.231" viewBox="0 0 16 16.231">
    <g id="prefix__prefix_b" data-name="prefix b" transform="translate(-4 -4)">
        <g id="prefix__Group_10" data-name="Group 10">
            <path id="prefix__prefix_a" d="M17.066 4A2.958 2.958 0 0 1 20 6.976v10.28a2.958 2.958 0 0 1-2.934 2.975H6.933A2.958 2.958 0 0 1 4 17.255V6.975A2.959 2.959 0 0 1 6.933 4zM12 6.772a5.344 5.344 0 1 0 5.267 5.343A5.312 5.312 0 0 0 12 6.772zm0 2.258a3.086 3.086 0 1 1-3.042 3.085A3.067 3.067 0 0 1 12 9.03zm5.436-3.681a1.264 1.264 0 1 0 1.247 1.264 1.257 1.257 0 0 0-1.247-1.264z" data-name="prefix a" style="fill:#fff;fill-rule:evenodd"/>
        </g>
    </g>
</svg>
