<svg xmlns="http://www.w3.org/2000/svg" width="260" height="195.55" viewBox="0 0 260 195.55">
    <path id="prefix__Path_26" d="M147.062 302.627a5.407 5.407 0 0 0-.212 1.549c0 4.178 3.164 9.917 6.7 12.141l72.117 45.315c1.977 1.242 5.467 2.876 7.775 1.6s2.786-5.1 2.786-7.433c0-9.975-7.186-22.99-15.627-28.3l-73.3-46.157a4.756 4.756 0 0 1 0-8.048l151.607-94.9a4.784 4.784 0 0 1 2.455-.73h.168a4.747 4.747 0 0 1 2.44.73l74.192 46.717c10.775 6.786 19.174 22 19.174 34.734v2.108c0 12.729-8.371 27.981-19.175 34.734l-121.111 75.7a4.753 4.753 0 0 1-5.051-8.046l121.109-75.7c7.976-4.986 14.731-17.291 14.731-26.689v-2.108c0-9.4-6.777-21.677-14.733-26.687l-71.659-45.125-142.682 89.289 66.9 42.132c11.277 7.1 20.069 23.024 20.069 36.351 0 6.186-1.982 12.6-7.7 15.755a13.433 13.433 0 0 1-6.559 1.657 20.842 20.842 0 0 1-10.872-3.537l-72.12-45.314c-6.279-3.945-11.145-12.775-11.145-20.188 0-3.959 1.463-7.962 5.077-9.958s7.784-1.1 11.133 1.009l74.151 46.594a4.752 4.752 0 1 1-5.063 8.043l-74.15-46.592a5.413 5.413 0 0 0-1.427-.647zm68.064-10.058a4.734 4.734 0 0 0 2.522-.728l38.6-24.2a4.752 4.752 0 1 0-5.048-8.051l-38.6 24.2a4.756 4.756 0 0 0 2.528 8.783zm52.185-22.58l-38.9 24.287a4.754 4.754 0 0 0 5.035 8.064l38.9-24.286a4.754 4.754 0 0 0-5.034-8.065zm41.184-61.838a4.758 4.758 0 0 0-5.056 0L251 240.919a4.752 4.752 0 0 0-.057 8.019c15.709 10.153 31.558 20.1 47.264 30.251a4.748 4.748 0 0 0 5.09.045l53.032-32.934a4.754 4.754 0 0 0 .021-8.061l-47.855-30.087zm-7.659 61.419l44.019-27.333-38.9-24.45-43.583 27.222c12.781 8.247 25.686 16.309 38.462 24.561zM242.7 311.311a4.748 4.748 0 0 0 6.544 1.526l39.194-24.369a4.753 4.753 0 1 0-5.02-8.071l-39.188 24.369a4.768 4.768 0 0 0-1.526 6.546zm-43.481-29.227a4.738 4.738 0 0 0 2.522-.728l38.6-24.2a4.752 4.752 0 1 0-5.041-8.056l-38.6 24.2a4.756 4.756 0 0 0 2.528 8.783z" data-name="Path 26" transform="translate(-137.344 -177.664)" style="fill:#222;fill-rule:evenodd"/>
</svg>
