<svg xmlns="http://www.w3.org/2000/svg" width="20" height="16" viewBox="0 0 20 16">
    <g id="prefix__prefix_b" data-name="prefix b" transform="translate(-2 -4)">
        <g id="prefix__Group_8" data-name="Group 8">
            <path id="prefix__prefix_a" d="M19.643 6.53a4.066 4.066 0 0 0 1.805-2.23 8.274 8.274 0 0 1-2.606.98 4.128 4.128 0 0 0-3-1.275 4.073 4.073 0 0 0-4.1 4.04 3.939 3.939 0 0 0 .107.92 11.719 11.719 0 0 1-8.457-4.226 3.971 3.971 0 0 0-.556 2.03 4.022 4.022 0 0 0 1.826 3.363A4.118 4.118 0 0 1 2.8 9.626v.051a4.057 4.057 0 0 0 3.292 3.96 4.165 4.165 0 0 1-1.853.071 4.1 4.1 0 0 0 3.833 2.805 8.324 8.324 0 0 1-5.1 1.729A8.533 8.533 0 0 1 2 18.185 11.736 11.736 0 0 0 8.29 20 11.5 11.5 0 0 0 19.964 8.507c0-.175 0-.35-.012-.522A8.251 8.251 0 0 0 22 5.895a8.326 8.326 0 0 1-2.357.634z" data-name="prefix a" style="fill:#fff;fill-rule:evenodd"/>
        </g>
    </g>
</svg>
