<svg xmlns="http://www.w3.org/2000/svg" width="259.597" height="260.582" viewBox="0 0 259.597 260.582">
    <path id="prefix__Path_25" d="M675.533 299.213l-97.051-97a3.748 3.748 0 0 0-5.15 0l-81.6 81.553-20.166-20.156a3.747 3.747 0 0 0-5.15 0l-48.346 48.325a3.637 3.637 0 0 0 0 5.147l20.166 20.156-9.472 9.467a3.638 3.638 0 0 0 0 5.152l109.292 108.852a3.642 3.642 0 0 0 5.146 0l18.175-18.165a3.641 3.641 0 0 0-5.15-5.147l-15.6 15.594-44.628-44.45 14.854-14.847a3.641 3.641 0 0 0-5.15-5.147L490.835 403.4l-54.341-54.124 20.683-20.676a3.641 3.641 0 1 0-5.15-5.147l-8.641 8.636-17.586-17.58 43.2-43.178 17.591 17.582-20.032 20.017a3.641 3.641 0 0 0 5.15 5.147l22.6-22.585.006-.006.005-.006 26.154-26.14 19.713 19.7a3.641 3.641 0 1 0 5.15-5.147l-19.713-19.7 50.286-50.258 91.9 91.852-50.285 50.258-43.136-43.113a3.641 3.641 0 1 0-5.15 5.147l5.483 5.48-50.422 50.389a3.637 3.637 0 0 0 0 5.147l16.77 16.76a3.641 3.641 0 0 0 5.15-5.147l-14.194-14.186 47.84-47.815 32.5 32.487-47.84 47.815-4.516-4.514a3.641 3.641 0 0 0-5.15 5.149l7.092 7.087.007.007 12.04 12.034a3.641 3.641 0 1 0 5.15-5.147l-9.471-9.468 105.855-105.796a3.637 3.637 0 0 0 0-5.148z" data-name="Path 25" transform="translate(-417.003 -201.189)" style="fill:#edeeee"/>
</svg>
